<?xml version="1.0" standalone="no"?>
<!DOCTYPE svg PUBLIC "-//W3C//DTD SVG 20010904//EN"
 "http://www.w3.org/TR/2001/REC-SVG-20010904/DTD/svg10.dtd">
<svg version="1.0" xmlns="http://www.w3.org/2000/svg"
 width="740.000000pt" height="531.000000pt" viewBox="0 0 740.000000 531.000000"
 preserveAspectRatio="xMidYMid meet">
<metadata>
Created by potrace 1.16, written by Peter Selinger 2001-2019
</metadata>
<g transform="translate(0.000000,531.000000) scale(0.100000,-0.100000)"
fill="#000000" stroke="none">
<path d="M3647 4403 l192 -3 4 -28 c4 -25 4 -24 6 6 l1 32 -197 -2 -198 -3
192 -2z"/>
<path d="M3443 4345 c0 -27 2 -38 4 -22 2 15 2 37 0 50 -2 12 -4 0 -4 -28z"/>
<path d="M3462 4360 c0 -19 2 -27 5 -17 2 9 2 25 0 35 -3 9 -5 1 -5 -18z"/>
<path d="M4110 4330 c0 -7 70 -9 204 -7 l204 3 -5 -35 c-3 -27 -2 -32 6 -21 6
8 11 27 11 43 l0 27 -210 0 c-135 0 -210 -4 -210 -10z"/>
<path d="M4130 4278 c0 -15 5 -30 10 -33 13 -8 13 25 0 45 -8 12 -10 9 -10
-12z"/>
<path d="M4498 4237 c-5 -10 -8 -31 -8 -45 1 -24 2 -25 11 -9 6 10 9 30 7 45
-2 23 -4 24 -10 9z"/>
<path d="M1550 4217 c-112 -34 -176 -73 -265 -162 -92 -92 -136 -166 -165
-281 -23 -89 -27 -175 -8 -156 7 7 20 12 31 12 17 0 18 -7 15 -70 -2 -51 0
-70 10 -70 6 0 12 -5 12 -11 0 -6 5 -9 12 -7 8 3 11 39 9 124 -2 97 2 130 18
179 29 87 63 144 125 208 62 63 107 94 186 125 166 65 327 48 480 -52 53 -34
156 -138 165 -166 4 -11 11 -20 18 -20 6 0 21 -10 33 -21 22 -21 24 -21 49 -5
l26 17 -32 57 c-86 154 -234 268 -401 307 -94 22 -228 19 -318 -8z"/>
<path d="M4151 4210 c0 -14 4 -32 9 -40 8 -12 10 -12 9 5 0 11 -4 29 -9 40 -8
18 -9 18 -9 -5z"/>
<path d="M4796 4154 c-22 -22 -20 -41 9 -69 24 -25 65 -34 65 -14 0 5 -4 7
-10 4 -5 -3 -10 -1 -10 4 0 6 5 11 10 11 6 0 10 5 10 11 0 7 -9 5 -24 -4 -13
-9 -26 -13 -30 -10 -13 14 -5 42 14 48 24 8 26 21 4 29 -21 8 -20 8 -38 -10z"/>
<path d="M4478 4147 c-5 -10 -8 -31 -8 -45 1 -24 2 -25 11 -9 6 10 9 30 7 45
-2 23 -4 24 -10 9z"/>
<path d="M4170 4128 c0 -13 5 -30 10 -38 7 -11 10 -7 10 17 0 17 -4 35 -10 38
-6 3 -10 -4 -10 -17z"/>
<path d="M1076 4107 c3 -10 9 -15 12 -12 3 3 0 11 -7 18 -10 9 -11 8 -5 -6z"/>
<path d="M1623 4056 c-75 -19 -155 -61 -204 -109 -58 -56 -73 -75 -111 -149
-31 -61 -32 -67 -33 -183 0 -115 2 -123 33 -187 49 -100 130 -183 222 -227 73
-34 78 -35 195 -35 115 -1 123 1 186 32 53 26 68 39 72 60 4 15 17 40 31 55
20 24 28 27 45 18 11 -6 26 -11 33 -11 16 1 -28 36 -64 51 -25 10 -32 8 -70
-23 -83 -68 -122 -82 -233 -82 -87 -1 -107 2 -150 24 -64 31 -144 111 -175
175 -21 43 -25 64 -25 145 1 80 5 103 25 145 55 113 139 178 268 206 81 19
184 -8 270 -71 85 -61 162 -228 117 -253 -26 -14 -19 -38 9 -31 18 4 27 1 35
-14 6 -11 8 -22 4 -25 -9 -10 48 -29 65 -22 12 4 14 20 9 83 -8 101 -34 181
-69 210 -16 13 -26 28 -23 33 9 13 -65 89 -123 126 -58 37 -182 73 -246 72
-23 0 -64 -6 -93 -13z"/>
<path d="M4190 4046 c0 -14 5 -28 10 -31 6 -3 10 5 10 19 0 14 -4 28 -10 31
-6 3 -10 -5 -10 -19z"/>
<path d="M4458 4057 c-12 -29 -10 -73 3 -60 6 6 9 26 7 44 -2 26 -5 30 -10 16z"/>
<path d="M3633 3993 c9 -2 23 -2 30 0 6 3 -1 5 -18 5 -16 0 -22 -2 -12 -5z"/>
<path d="M3703 3993 c9 -2 23 -2 30 0 6 3 -1 5 -18 5 -16 0 -22 -2 -12 -5z"/>
<path d="M4210 3973 c0 -18 5 -33 10 -33 13 0 13 30 0 50 -7 11 -10 7 -10 -17z"/>
<path d="M6482 3988 c-19 -19 -14 -28 13 -28 24 0 51 -31 38 -44 -3 -3 -2 -6
4 -6 18 0 23 43 7 67 -16 25 -43 30 -62 11z"/>
<path d="M4438 3964 c-5 -4 -8 -21 -8 -38 1 -26 2 -28 11 -13 11 19 8 63 -3
51z"/>
<path d="M3653 3943 c9 -2 23 -2 30 0 6 3 -1 5 -18 5 -16 0 -22 -2 -12 -5z"/>
<path d="M3728 3943 c6 -2 18 -2 25 0 6 3 1 5 -13 5 -14 0 -19 -2 -12 -5z"/>
<path d="M4234 3898 l5 -38 -97 -1 c-117 -1 -147 -8 -147 -34 0 -31 50 -35
335 -30 294 6 339 10 347 32 11 28 -14 35 -131 34 -105 -1 -116 0 -116 16 -1
17 -1 17 -11 1 -8 -15 -24 -18 -89 -18 -76 0 -80 1 -80 23 0 12 -5 29 -11 37
-8 11 -9 6 -5 -22z"/>
<path d="M5868 3893 c12 -2 32 -2 45 0 12 2 2 4 -23 4 -25 0 -35 -2 -22 -4z"/>
<path d="M6088 3893 c12 -2 30 -2 40 0 9 3 -1 5 -23 4 -22 0 -30 -2 -17 -4z"/>
<path d="M1655 3880 c-11 -4 -34 -14 -52 -20 -40 -15 -84 -57 -120 -112 -37
-60 -45 -174 -15 -240 40 -91 137 -165 226 -173 72 -6 176 32 219 79 17 19 17
21 -12 50 -28 27 -32 29 -48 14 -59 -52 -157 -64 -223 -27 -118 67 -121 247
-3 315 94 56 211 24 260 -70 20 -39 19 -147 -2 -162 -14 -10 -10 -16 27 -43
l43 -32 19 43 c68 152 -17 329 -180 376 -47 14 -109 15 -139 2z"/>
<path d="M2454 3865 c-8 -20 2 -45 18 -45 10 0 10 3 -1 9 -8 5 -12 18 -8 30 6
24 -1 29 -9 6z"/>
<path d="M2506 3867 c3 -9 1 -24 -6 -32 -8 -9 -8 -15 -2 -15 16 0 26 40 12 54
-8 8 -10 7 -4 -7z"/>
<path d="M5778 3873 c7 -3 16 -2 19 1 4 3 -2 6 -13 5 -11 0 -14 -3 -6 -6z"/>
<path d="M5867 3871 c-76 -11 -93 -27 -41 -38 47 -10 308 -10 347 0 33 9 35
22 5 31 -40 10 -251 15 -311 7z"/>
<path d="M6208 3873 c7 -3 16 -2 19 1 4 3 -2 6 -13 5 -11 0 -14 -3 -6 -6z"/>
<path d="M2112 3854 c9 -9 21 -15 27 -13 6 2 -2 10 -17 17 -25 11 -25 11 -10
-4z"/>
<path d="M2199 3841 c49 -90 62 -278 28 -378 -16 -46 -17 -55 -4 -80 13 -24
13 -29 -2 -41 -15 -13 -15 -13 2 -8 12 4 17 0 17 -14 0 -38 21 -19 51 45 58
122 70 277 34 415 -17 63 -27 76 -45 55 -17 -20 -33 -19 -55 5 -23 25 -39 26
-26 1z"/>
<path d="M3878 3803 c6 -2 18 -2 25 0 6 3 1 5 -13 5 -14 0 -19 -2 -12 -5z"/>
<path d="M4310 3778 c-162 -5 -301 -10 -307 -13 -15 -5 -17 -41 -3 -50 14 -9
610 -6 645 3 39 11 47 47 13 57 -41 12 -48 12 -348 3z"/>
<path d="M4858 3754 c-5 -4 -8 -21 -7 -38 0 -30 0 -30 10 -7 11 27 8 57 -3 45z"/>
<path d="M980 3736 c0 -2 8 -10 18 -17 15 -13 16 -12 3 4 -13 16 -21 21 -21
13z"/>
<path d="M1657 3722 c-45 -30 -56 -53 -57 -113 0 -49 3 -58 33 -86 36 -34 75
-45 125 -35 l32 7 -41 58 c-23 32 -38 61 -35 64 3 4 30 -1 60 -10 70 -23 76
-22 76 11 -1 91 -117 154 -193 104z"/>
<path d="M6248 3690 c-3 -16 -1 -30 4 -30 4 0 8 14 8 30 0 17 -2 30 -4 30 -2
0 -6 -13 -8 -30z"/>
<path d="M4313 3690 c-317 -5 -341 -9 -317 -48 10 -16 37 -17 318 -14 168 1
306 -2 306 -6 0 -5 -125 -12 -277 -16 -311 -8 -348 -12 -348 -41 0 -31 66 -37
357 -29 l267 6 4 -38 4 -39 1 42 c2 35 6 42 25 45 14 2 23 11 25 26 3 18 -1
22 -23 22 -20 0 -26 4 -23 18 2 9 13 18 26 20 21 3 32 35 15 45 -20 11 -79 12
-360 7z"/>
<path d="M6440 3644 l-43 -46 7 -86 c9 -102 28 -155 53 -150 14 3 18 14 19 58
1 30 2 64 3 76 1 11 12 34 26 50 l25 29 0 -26 c0 -38 166 -192 196 -182 7 2
-12 28 -41 57 -60 59 -70 91 -63 182 4 51 3 55 -16 53 -50 -3 -86 2 -100 16
-8 8 -17 15 -19 15 -2 0 -24 -21 -47 -46z"/>
<path d="M6664 3672 c-23 -14 -36 -92 -24 -139 13 -54 38 -95 53 -86 5 3 7 1
3 -5 -3 -6 7 -20 24 -32 33 -23 42 -8 12 19 -10 9 -28 31 -41 50 -22 30 -23
39 -17 117 3 46 5 84 4 84 -2 0 -8 -4 -14 -8z"/>
<path d="M6352 3625 c0 -16 2 -22 5 -12 2 9 2 23 0 30 -3 6 -5 -1 -5 -18z"/>
<path d="M3808 3633 c6 -2 18 -2 25 0 6 3 1 5 -13 5 -14 0 -19 -2 -12 -5z"/>
<path d="M3878 3633 c6 -2 18 -2 25 0 6 3 1 5 -13 5 -14 0 -19 -2 -12 -5z"/>
<path d="M3633 3563 c9 -2 23 -2 30 0 6 3 -1 5 -18 5 -16 0 -22 -2 -12 -5z"/>
<path d="M3718 3563 c7 -3 16 -2 19 1 4 3 -2 6 -13 5 -11 0 -14 -3 -6 -6z"/>
<path d="M1030 3520 c0 -11 2 -20 4 -20 2 0 6 9 9 20 3 11 1 20 -4 20 -5 0 -9
-9 -9 -20z"/>
<path d="M6302 3524 c-7 -8 -8 -14 -3 -14 10 0 25 19 20 25 -2 1 -10 -3 -17
-11z"/>
<path d="M3653 3513 c9 -2 23 -2 30 0 6 3 -1 5 -18 5 -16 0 -22 -2 -12 -5z"/>
<path d="M3723 3513 c9 -2 23 -2 30 0 6 3 -1 5 -18 5 -16 0 -22 -2 -12 -5z"/>
<path d="M6262 3488 c-12 -12 -17 -68 -6 -68 24 0 40 22 36 49 -5 34 -11 38
-30 19z"/>
<path d="M4448 3423 c17 -2 47 -2 65 0 17 2 3 4 -33 4 -36 0 -50 -2 -32 -4z"/>
<path d="M1210 3385 c-10 -13 -9 -15 8 -15 34 0 35 -17 2 -48 l-30 -29 31 -47
c47 -70 135 -143 224 -186 106 -50 170 -65 285 -64 98 1 152 12 231 45 l45 20
-10 48 -9 48 -44 -19 c-208 -92 -448 -46 -599 114 -28 29 -63 74 -78 101 -30
51 -37 55 -56 32z"/>
<path d="M1028 3329 c-35 -20 -21 -39 27 -39 50 0 57 11 23 34 -26 19 -27 19
-50 5z"/>
<path d="M6764 3315 c-10 -8 -14 -14 -9 -15 15 0 40 18 34 24 -3 3 -14 -1 -25
-9z"/>
<path d="M6428 3303 c6 -2 18 -2 25 0 6 3 1 5 -13 5 -14 0 -19 -2 -12 -5z"/>
<path d="M2071 3216 c-16 -17 -21 -35 -21 -74 0 -29 3 -52 8 -52 4 0 23 15 44
33 l36 32 -23 42 -23 42 -21 -23z"/>
<path d="M1090 3174 c0 -11 38 -74 45 -74 2 0 -5 17 -17 38 -27 46 -28 48 -28
36z"/>
<path d="M1195 3150 c-3 -6 1 -7 9 -4 18 7 21 14 7 14 -6 0 -13 -4 -16 -10z"/>
<path d="M1204 3108 l-19 -23 23 19 c21 18 27 26 19 26 -2 0 -12 -10 -23 -22z"/>
<path d="M3915 3096 c-14 -10 -19 -28 -20 -79 -1 -57 1 -66 18 -71 30 -8 10
-24 -38 -32 -58 -8 -57 -21 0 -30 51 -7 58 -25 20 -50 -18 -11 -38 -15 -65
-11 -39 5 -61 -5 -40 -18 6 -4 41 -10 78 -13 64 -7 67 -8 70 -35 5 -38 46 -57
126 -57 l66 0 -6 47 c-3 26 -12 63 -21 83 -9 21 -15 59 -14 97 1 51 -2 64 -18
75 -11 8 -25 26 -30 41 -6 15 -16 27 -24 27 -7 0 -20 9 -30 20 -20 23 -46 26
-72 6z"/>
<path d="M1158 3093 c7 -3 16 -2 19 1 4 3 -2 6 -13 5 -11 0 -14 -3 -6 -6z"/>
<path d="M2316 3014 c-11 -8 -16 -14 -10 -14 13 0 39 18 34 24 -3 2 -14 -2
-24 -10z"/>
<path d="M2008 3003 c6 -2 18 -2 25 0 6 3 1 5 -13 5 -14 0 -19 -2 -12 -5z"/>
<path d="M3068 2873 c18 -2 45 -2 60 0 15 2 0 4 -33 4 -33 0 -45 -2 -27 -4z"/>
<path d="M6108 2872 l-248 -2 -2 -113 c-2 -168 -2 -166 51 -222 73 -76 92
-109 98 -170 5 -48 10 -57 37 -73 l31 -19 -92 281 c-51 155 -93 282 -93 284 0
1 140 1 311 0 l311 -3 89 -240 c49 -132 96 -259 105 -282 12 -33 21 -43 37
-42 17 1 18 2 5 6 -10 2 -18 11 -18 19 0 11 4 13 18 5 11 -6 17 -22 17 -47 0
-46 19 -59 69 -50 82 16 113 96 61 158 -14 16 -25 36 -25 44 0 8 -6 14 -13 14
-8 0 -22 9 -32 20 -20 22 -64 27 -83 8 -7 -7 -12 -36 -12 -65 0 -29 -4 -53
-10 -53 -5 0 -10 5 -10 11 0 9 -47 138 -162 446 l-30 82 -82 3 c-44 2 -192 2
-328 0z"/>
<path d="M5528 2843 c7 -3 16 -2 19 1 4 3 -2 6 -13 5 -11 0 -14 -3 -6 -6z"/>
<path d="M5570 2846 c0 -2 7 -7 16 -10 8 -3 12 -2 9 4 -6 10 -25 14 -25 6z"/>
<path d="M5620 2820 c0 -5 5 -10 11 -10 5 0 7 5 4 10 -3 6 -8 10 -11 10 -2 0
-4 -4 -4 -10z"/>
<path d="M5651 2774 c0 -11 3 -14 6 -6 3 7 2 16 -1 19 -3 4 -6 -2 -5 -13z"/>
<path d="M5808 2633 c7 -3 16 -2 19 1 4 3 -2 6 -13 5 -11 0 -14 -3 -6 -6z"/>
<path d="M4053 2596 c-6 -20 -7 -36 -2 -36 10 0 23 44 17 61 -2 6 -9 -5 -15
-25z"/>
<path d="M6320 2621 c0 -5 -8 -12 -17 -14 -14 -4 -12 -5 5 -6 13 -1 22 5 22
14 0 8 -2 15 -5 15 -3 0 -5 -4 -5 -9z"/>
<path d="M6351 2604 c0 -11 3 -14 6 -6 3 7 2 16 -1 19 -3 4 -6 -2 -5 -13z"/>
<path d="M3168 2596 c-35 -26 -20 -36 50 -35 37 1 58 4 48 6 -10 3 -28 14 -39
24 -24 22 -36 23 -59 5z"/>
<path d="M6331 2564 c0 -11 3 -14 6 -6 3 7 2 16 -1 19 -3 4 -6 -2 -5 -13z"/>
<path d="M6430 2520 c0 -5 5 -10 11 -10 5 0 7 5 4 10 -3 6 -8 10 -11 10 -2 0
-4 -4 -4 -10z"/>
<path d="M6540 2520 l-25 -8 28 -1 c15 -1 27 4 27 9 0 6 -1 10 -2 9 -2 -1 -14
-5 -28 -9z"/>
<path d="M4580 2476 c0 -2 8 -10 18 -17 15 -13 16 -12 3 4 -13 16 -21 21 -21
13z"/>
<path d="M4835 2460 c10 -11 20 -20 23 -20 3 0 -3 9 -13 20 -10 11 -20 20 -23
20 -3 0 3 -9 13 -20z"/>
<path d="M4769 2453 c-13 -16 -12 -17 4 -4 16 13 21 21 13 21 -2 0 -10 -8 -17
-17z"/>
<path d="M6090 2453 c0 -12 3 -14 8 -6 4 6 30 13 57 16 l50 3 -57 2 c-49 2
-58 -1 -58 -15z"/>
<path d="M6215 2460 c3 -5 8 -10 11 -10 2 0 4 5 4 10 0 6 -5 10 -11 10 -5 0
-7 -4 -4 -10z"/>
<path d="M6300 2464 c34 -7 110 -9 110 -2 0 5 -28 7 -62 7 -35 -1 -56 -3 -48
-5z"/>
<path d="M6483 2463 c9 -2 23 -2 30 0 6 3 -1 5 -18 5 -16 0 -22 -2 -12 -5z"/>
<path d="M6441 2344 c0 -11 3 -14 6 -6 3 7 2 16 -1 19 -3 4 -6 -2 -5 -13z"/>
<path d="M4200 2330 c-9 -6 -10 -10 -3 -10 6 0 15 5 18 10 8 12 4 12 -15 0z"/>
<path d="M863 2310 c-12 -5 -26 -18 -32 -29 -13 -24 -15 -608 -3 -613 5 -1 12
-18 15 -35 5 -26 3 -33 -9 -33 -10 0 -14 -6 -10 -17 6 -23 19 -92 21 -118 3
-31 -12 -34 -117 -28 -71 4 -98 3 -98 -5 0 -7 18 -12 45 -12 25 0 45 -1 45 -2
-1 -2 -24 -99 -54 -215 -32 -129 -48 -213 -41 -213 6 0 32 89 59 198 26 108
50 205 52 215 4 12 16 17 45 17 l39 0 0 -170 c0 -168 0 -171 25 -195 l24 -25
264 0 c256 0 265 -1 270 -20 3 -11 10 -20 17 -20 7 0 9 8 5 20 -6 19 -2 20 94
20 l101 0 -6 33 c-3 17 -10 45 -15 61 -5 16 -9 42 -9 57 l0 29 -105 0 c-75 0
-107 4 -110 13 -3 6 -12 44 -21 82 -8 39 -18 80 -21 93 -5 20 -2 22 41 22 25
0 46 5 46 10 0 6 -45 10 -115 10 -66 0 -115 4 -115 10 0 5 -28 10 -62 12 -68
3 -63 -2 -88 96 l-11 42 -59 0 -60 0 0 284 c0 265 1 285 19 307 l19 24 362 0
362 0 19 -24 c10 -13 19 -36 19 -52 0 -27 3 -29 40 -29 l40 0 0 83 c0 132 39
122 -474 124 -237 1 -441 -2 -453 -7z m465 -988 c12 -53 22 -100 22 -104 0 -5
-90 -8 -200 -8 -247 0 -240 -3 -240 125 l0 85 198 0 197 0 23 -98z"/>
<path d="M3978 2303 c7 -3 16 -2 19 1 4 3 -2 6 -13 5 -11 0 -14 -3 -6 -6z"/>
<path d="M1991 2274 c0 -11 3 -14 6 -6 3 7 2 16 -1 19 -3 4 -6 -2 -5 -13z"/>
<path d="M5858 2245 c2 -20 10 -35 17 -35 7 0 15 -6 18 -12 3 -10 10 -10 28 1
22 13 23 13 11 -2 -9 -10 -10 -17 -2 -22 17 -11 30 5 30 36 0 25 -4 29 -28 29
-16 0 -37 9 -47 20 -26 28 -32 25 -27 -15z"/>
<path d="M6466 2267 c3 -10 9 -15 12 -12 3 3 0 11 -7 18 -10 9 -11 8 -5 -6z"/>
<path d="M6355 2250 c-3 -11 -2 -27 2 -35 6 -11 9 -5 9 20 0 40 -2 43 -11 15z"/>
<path d="M4617 2253 c155 -2 411 -2 570 0 158 1 32 2 -282 2 -313 0 -443 -1
-288 -2z"/>
<path d="M6064 2236 c-3 -13 -1 -33 5 -44 16 -30 14 -149 -2 -155 -17 -6 -111
9 -136 22 -17 9 -22 8 -31 -10 -7 -11 -14 -18 -17 -16 -2 3 0 14 6 25 13 24 5
52 -14 52 -7 0 -15 -10 -19 -22 -9 -34 -7 -40 7 -32 6 4 -3 -7 -21 -25 -19
-17 -44 -31 -58 -31 -13 0 -24 -4 -24 -10 0 -6 38 -10 95 -10 l96 0 -7 -60 -7
-60 42 0 c48 0 48 1 26 -113 -8 -43 -15 -81 -15 -83 0 -2 8 -4 18 -4 16 0 22
16 37 100 l17 100 98 0 c75 0 99 -3 103 -14 3 -8 11 -51 18 -96 12 -75 27
-105 46 -87 5 5 -6 87 -23 170 l-6 28 88 -3 88 -3 18 -95 c9 -52 17 -96 17
-97 1 -2 9 -3 19 -3 18 0 18 4 2 95 -10 52 -15 97 -12 100 3 3 61 5 128 5 106
0 123 2 118 15 -5 13 -46 15 -286 15 l-279 0 -10 28 c-12 32 -65 76 -82 68 -6
-3 -22 -13 -33 -21 -20 -15 -24 -14 -50 10 l-29 27 29 -21 29 -21 22 20 c27
25 47 25 70 0 10 -11 20 -18 22 -16 5 5 -87 296 -93 296 -2 0 -6 -11 -10 -24z"/>
<path d="M2000 2242 c0 -8 16 -30 35 -49 26 -26 41 -34 62 -31 18 2 35 -4 48
-17 12 -12 14 -13 6 -3 -13 16 -11 21 12 46 28 30 34 47 17 57 -6 3 -7 -1 -4
-10 6 -15 -21 -55 -37 -55 -4 0 -10 10 -12 23 -4 19 -4 18 -6 -5 -2 -49 -66
-33 -101 25 -11 18 -20 26 -20 19z"/>
<path d="M6698 2243 c6 -2 18 -2 25 0 6 3 1 5 -13 5 -14 0 -19 -2 -12 -5z"/>
<path d="M4343 2200 c0 -25 2 -35 4 -22 2 12 2 32 0 45 -2 12 -4 2 -4 -23z"/>
<path d="M6451 2227 c-1 -10 5 -25 13 -33 21 -20 32 -17 14 4 -9 9 -18 24 -21
32 -4 12 -6 11 -6 -3z"/>
<path d="M4373 2215 c-3 -9 -3 -18 -1 -21 3 -3 8 4 11 16 6 23 -1 27 -10 5z"/>
<path d="M4497 2209 c4 -13 8 -18 11 -10 2 7 -1 18 -6 23 -8 8 -9 4 -5 -13z"/>
<path d="M4432 2200 c0 -14 2 -19 5 -12 2 6 2 18 0 25 -3 6 -5 1 -5 -13z"/>
<path d="M6670 2211 c0 -6 4 -13 10 -16 6 -3 7 1 4 9 -7 18 -14 21 -14 7z"/>
<path d="M6370 2180 c0 -5 5 -10 10 -10 6 0 10 5 10 10 0 6 -4 10 -10 10 -5 0
-10 -4 -10 -10z"/>
<path d="M6496 2172 c-7 -22 -76 -30 -76 -9 0 8 -3 8 -9 -2 -5 -7 -14 -10 -20
-7 -6 4 -11 2 -11 -4 0 -7 25 -10 70 -9 39 1 70 6 70 11 0 5 -5 6 -11 2 -8 -4
-9 0 -4 15 3 11 4 21 1 21 -2 0 -7 -8 -10 -18z"/>
<path d="M6594 2148 c-3 -4 23 -7 58 -7 66 1 62 6 -10 11 -24 2 -46 0 -48 -4z"/>
<path d="M2218 2103 c12 -2 32 -2 45 0 12 2 2 4 -23 4 -25 0 -35 -2 -22 -4z"/>
<path d="M5773 2103 c9 -2 23 -2 30 0 6 3 -1 5 -18 5 -16 0 -22 -2 -12 -5z"/>
<path d="M5822 2080 c0 -14 2 -19 5 -12 2 6 2 18 0 25 -3 6 -5 1 -5 -13z"/>
<path d="M6253 2093 c20 -2 54 -2 75 0 20 2 3 4 -38 4 -41 0 -58 -2 -37 -4z"/>
<path d="M6433 2093 c20 -2 54 -2 75 0 20 2 3 4 -38 4 -41 0 -58 -2 -37 -4z"/>
<path d="M6587 2084 c3 -9 8 -12 12 -5 4 5 33 12 66 14 l60 3 -72 2 c-62 2
-72 0 -66 -14z"/>
<path d="M6770 2092 c0 -21 66 -36 152 -33 29 1 36 4 32 16 -5 11 -10 12 -26
4 -21 -11 -110 -3 -140 13 -11 5 -18 5 -18 0z"/>
<path d="M4037 2083 c-10 -9 -9 -23 1 -23 5 0 9 7 9 15 0 17 -1 18 -10 8z"/>
<path d="M1217 2049 c7 -7 15 -10 18 -7 3 3 -2 9 -12 12 -14 6 -15 5 -6 -5z"/>
<path d="M6370 2035 c0 -5 5 -17 10 -25 5 -8 10 -10 10 -5 0 6 -5 17 -10 25
-5 8 -10 11 -10 5z"/>
<path d="M6741 2014 c0 -11 3 -14 6 -6 3 7 2 16 -1 19 -3 4 -6 -2 -5 -13z"/>
<path d="M2865 1995 l-25 -24 0 -401 c0 -260 3 -400 10 -400 6 0 10 -5 10 -11
0 -6 -10 -8 -22 -5 -13 3 -17 3 -10 0 8 -4 12 -28 12 -70 0 -38 4 -63 9 -59
17 10 21 -12 6 -25 -12 -10 -15 -46 -15 -196 l0 -184 -59 0 -58 0 -7 -46 c-3
-26 -6 -57 -6 -70 l0 -24 1375 0 1375 0 0 69 0 68 -92 7 c-50 3 -359 6 -688 6
l-596 0 -19 78 c-10 42 -30 127 -45 187 -15 61 -31 127 -34 148 l-7 37 64 0
c50 0 64 3 64 15 0 16 -31 18 -218 15 -82 -1 -97 1 -103 15 -5 14 -19 16 -89
14 l-82 -4 -17 55 c-9 30 -22 74 -28 98 l-11 42 -145 0 -145 0 7 -47 c4 -27
12 -75 19 -108 l12 -60 -154 -3 c-127 -2 -153 -5 -153 -17 0 -12 14 -15 61
-15 53 0 60 -2 55 -17 -2 -10 -28 -114 -57 -231 -51 -213 -51 -213 -78 -210
l-26 3 -3 623 -2 622 430 0 430 0 0 75 0 75 -460 0 -461 0 -24 -25z m883 -892
c-10 -2 -26 -2 -35 0 -10 3 -2 5 17 5 19 0 27 -2 18 -5z m-275 -10 c-29 -2
-77 -2 -105 0 -29 2 -6 3 52 3 58 0 81 -1 53 -3z m544 1 c-3 -3 -12 -4 -19 -1
-8 3 -5 6 6 6 11 1 17 -2 13 -5z m-86 -26 c9 -7 21 -37 27 -66 19 -87 19 -87
-38 -84 -34 3 -48 8 -43 15 4 7 -8 0 -27 -14 -19 -14 -35 -30 -37 -35 -2 -5
35 -8 86 -6 l89 3 26 -113 c14 -62 26 -119 26 -125 0 -9 -17 -13 -53 -13 -41
0 -55 -4 -65 -20 -7 -12 -23 -20 -39 -20 -26 0 -26 0 -7 21 l19 21 -65 -3 -65
-4 0 58 c0 31 -3 57 -7 57 -9 0 0 -222 10 -232 4 -4 39 -9 77 -11 39 -1 -2 -3
-90 -3 -88 0 -125 2 -82 3 l78 4 -3 61 -3 62 -342 -3 c-188 -1 -346 0 -351 3
-7 4 82 386 103 444 3 9 89 12 383 12 288 0 382 -3 393 -12z m-824 -130 c-3
-8 -6 -5 -6 6 -1 11 2 17 5 13 3 -3 4 -12 1 -19z"/>
<path d="M3815 1035 c22 -8 52 -14 67 -14 21 -1 28 -7 31 -28 3 -20 4 -15 6
15 l1 42 -72 -1 -73 -1 40 -13z"/>
<path d="M3437 913 c-17 -16 -4 -31 31 -35 36 -3 37 -2 27 19 -9 22 -44 31
-58 16z"/>
<path d="M3630 896 c0 -8 5 -18 10 -21 6 -3 10 1 10 9 0 8 -4 18 -10 21 -5 3
-10 -1 -10 -9z"/>
<path d="M6300 1979 c0 -5 5 -7 10 -4 6 3 10 8 10 11 0 2 -4 4 -10 4 -5 0 -10
-5 -10 -11z"/>
<path d="M6883 1956 c-6 -20 -7 -36 -2 -36 10 0 23 44 17 61 -2 6 -9 -5 -15
-25z"/>
<path d="M6324 1968 c-3 -4 13 -8 35 -8 23 0 41 2 41 4 0 8 -71 12 -76 4z"/>
<path d="M6483 1963 c20 -2 54 -2 75 0 20 2 3 4 -38 4 -41 0 -58 -2 -37 -4z"/>
<path d="M6658 1963 c17 -2 47 -2 65 0 17 2 3 4 -33 4 -36 0 -50 -2 -32 -4z"/>
<path d="M6868 1882 c-4 -12 -2 -25 4 -28 16 -10 22 4 11 28 l-10 22 -5 -22z"/>
<path d="M1691 1836 c-10 -12 -8 -15 11 -18 13 -2 23 -8 23 -15 0 -6 3 -14 7
-18 4 -4 3 -18 -2 -31 -5 -13 -7 -24 -3 -24 3 0 -11 -16 -32 -36 -23 -22 -44
-33 -53 -29 -21 8 -32 -12 -32 -57 0 -36 1 -38 34 -38 42 0 53 14 66 81 12 60
21 74 44 66 12 -5 16 -20 16 -54 0 -94 -57 -157 -122 -134 -38 13 -50 5 -23
-16 30 -23 187 -13 224 14 14 11 28 28 29 37 4 20 -34 66 -55 66 -19 0 -26 42
-14 85 13 50 4 91 -27 115 -29 23 -75 26 -91 6z"/>
<path d="M7025 1690 c-3 -6 1 -7 9 -4 18 7 21 14 7 14 -6 0 -13 -4 -16 -10z"/>
<path d="M6840 1681 c0 -5 -10 -12 -22 -14 -20 -4 -19 -4 5 -6 18 -1 27 4 27
14 0 8 -2 15 -5 15 -3 0 -5 -4 -5 -9z"/>
<path d="M594 1658 l-19 -23 23 19 c21 18 27 26 19 26 -2 0 -12 -10 -23 -22z"/>
<path d="M3644 1495 c-22 -33 -11 -46 29 -34 27 8 34 6 49 -13 10 -13 18 -30
18 -38 1 -24 20 10 20 36 0 63 -83 99 -116 49z"/>
<path d="M359 1353 c-13 -16 -12 -17 4 -4 9 7 17 15 17 17 0 8 -8 3 -21 -13z"/>
<path d="M2466 1291 c-3 -5 2 -15 12 -22 15 -13 16 -12 3 4 -15 20 -2 23 19 5
12 -11 12 -10 1 5 -15 19 -27 22 -35 8z"/>
<path d="M6419 1273 c-13 -16 -12 -17 4 -4 9 7 17 15 17 17 0 8 -8 3 -21 -13z"/>
<path d="M2540 1264 c0 -10 5 -26 10 -34 8 -11 9 -7 4 15 -8 37 -14 45 -14 19z"/>
<path d="M2561 1264 c0 -11 3 -14 6 -6 3 7 2 16 -1 19 -3 4 -6 -2 -5 -13z"/>
<path d="M1696 1243 c-3 -3 -6 -36 -6 -72 0 -36 -5 -83 -9 -105 l-9 -38 46 5
c50 5 80 31 61 53 -6 7 -25 47 -43 88 -18 42 -36 73 -40 69z"/>
<path d="M2475 1221 c-3 -5 0 -13 6 -17 7 -4 9 -3 5 4 -3 5 0 13 6 15 9 4 10
6 1 6 -6 1 -14 -3 -18 -8z"/>
<path d="M2597 1209 c4 -13 8 -18 11 -10 2 7 -1 18 -6 23 -8 8 -9 4 -5 -13z"/>
<path d="M3843 1203 c9 -2 23 -2 30 0 6 3 -1 5 -18 5 -16 0 -22 -2 -12 -5z"/>
<path d="M3911 1184 c0 -11 3 -14 6 -6 3 7 2 16 -1 19 -3 4 -6 -2 -5 -13z"/>
<path d="M2790 1148 c0 -36 4 -35 14 5 4 16 2 27 -4 27 -5 0 -10 -14 -10 -32z"/>
<path d="M2536 1157 c3 -10 9 -15 12 -12 3 3 0 11 -7 18 -10 9 -11 8 -5 -6z"/>
<path d="M6419 1153 c-13 -16 -12 -17 4 -4 16 13 21 21 13 21 -2 0 -10 -8 -17
-17z"/>
<path d="M2615 1149 c-6 -8 -4 -10 5 -4 10 6 12 4 6 -11 -6 -15 -5 -17 5 -6 9
9 10 15 2 23 -8 8 -13 7 -18 -2z"/>
<path d="M2750 1134 c0 -8 5 -12 10 -9 6 3 10 10 10 16 0 5 -4 9 -10 9 -5 0
-10 -7 -10 -16z"/>
<path d="M2512 1108 c2 -6 11 -13 19 -16 11 -3 11 -2 -1 7 -13 9 -13 11 1 11
8 0 21 -6 29 -12 12 -11 12 -10 1 5 -15 19 -55 24 -49 5z"/>
<path d="M2721 1094 c0 -11 3 -14 6 -6 3 7 2 16 -1 19 -3 4 -6 -2 -5 -13z"/>
<path d="M6410 1106 c0 -2 8 -10 18 -17 15 -13 16 -12 3 4 -13 16 -21 21 -21
13z"/>
<path d="M2788 1093 c7 -3 16 -2 19 1 4 3 -2 6 -13 5 -11 0 -14 -3 -6 -6z"/>
<path d="M2394 1079 c-3 -6 -2 -15 3 -20 5 -5 9 -1 9 11 0 23 -2 24 -12 9z"/>
<path d="M2330 1069 c0 -5 5 -7 10 -4 6 3 10 8 10 11 0 2 -4 4 -10 4 -5 0 -10
-5 -10 -11z"/>
<path d="M2360 1060 c0 -5 5 -10 11 -10 5 0 7 5 4 10 -3 6 -8 10 -11 10 -2 0
-4 -4 -4 -10z"/>
<path d="M2690 1063 c0 -5 5 -15 10 -23 8 -12 10 -11 10 8 0 12 -4 22 -10 22
-5 0 -10 -3 -10 -7z"/>
<path d="M2775 1060 c3 -5 8 -10 11 -10 2 0 4 5 4 10 0 6 -5 10 -11 10 -5 0
-7 -4 -4 -10z"/>
<path d="M2558 1053 c6 -2 10 -9 6 -14 -3 -5 2 -9 12 -9 13 0 14 3 4 15 -7 8
-18 15 -24 14 -7 0 -6 -2 2 -6z"/>
<path d="M2440 1035 c0 -8 2 -15 4 -15 2 0 6 7 10 15 3 8 1 15 -4 15 -6 0 -10
-7 -10 -15z"/>
<path d="M2357 1023 c-3 -5 6 -9 20 -10 19 -1 22 1 12 8 -17 11 -26 11 -32 2z"/>
<path d="M2676 1017 c3 -10 9 -15 12 -12 3 3 0 11 -7 18 -10 9 -11 8 -5 -6z"/>
<path d="M2738 1023 c6 -2 18 -2 25 0 6 3 1 5 -13 5 -14 0 -19 -2 -12 -5z"/>
<path d="M2643 1008 c-14 -18 -23 -59 -12 -52 5 3 9 13 9 23 0 9 5 22 12 29 7
7 9 12 6 12 -3 0 -10 -6 -15 -12z"/>
<path d="M2425 990 c-16 -7 -17 -9 -3 -9 9 -1 20 4 23 9 7 11 7 11 -20 0z"/>
<path d="M2568 993 c6 -2 10 -8 8 -12 -3 -4 5 -8 16 -8 20 -2 20 -1 2 12 -11
8 -23 14 -29 14 -5 0 -4 -3 3 -6z"/>
<path d="M2476 963 c-6 -14 -5 -15 5 -6 7 7 10 15 7 18 -3 3 -9 -2 -12 -12z"/>
<path d="M5726 950 c41 -30 64 -66 64 -100 0 -15 -7 -20 -28 -20 -37 0 -65
-21 -60 -46 6 -33 49 -30 79 6 l26 31 29 -24 c22 -19 30 -36 35 -78 6 -54 6
-54 8 -11 1 50 -21 95 -56 111 -13 6 -23 19 -23 31 0 33 -27 77 -63 104 -19
15 -38 26 -42 26 -5 0 9 -13 31 -30z m58 -145 c-14 -35 -74 -47 -74 -16 0 22
13 29 52 30 21 1 26 -3 22 -14z"/>
<path d="M2416 951 c-3 -4 6 -8 20 -9 13 -1 24 0 24 2 0 7 -40 14 -44 7z"/>
<path d="M2509 932 c-3 -20 -2 -29 4 -23 5 5 7 19 5 32 -3 20 -5 19 -9 -9z"/>
<path d="M2569 941 c11 -7 11 -9 0 -14 -8 -3 -1 -6 15 -6 28 -1 29 0 10 14
-10 8 -23 14 -29 15 -5 0 -4 -4 4 -9z"/>
<path d="M2450 916 c0 -2 7 -7 16 -10 8 -3 12 -2 9 4 -6 10 -25 14 -25 6z"/>
<path d="M2535 899 c-4 -6 -5 -12 -2 -15 2 -3 7 2 10 11 7 17 1 20 -8 4z"/>
<path d="M2586 876 c3 -9 13 -16 22 -16 8 0 13 1 11 3 -2 1 -12 9 -22 16 -15
12 -17 12 -11 -3z"/>
<path d="M2790 870 c-13 -8 -12 -10 3 -10 9 0 17 5 17 10 0 12 -1 12 -20 0z"/>
<path d="M2556 842 c-3 -5 1 -9 9 -9 8 0 15 4 15 9 0 4 -4 8 -9 8 -6 0 -12 -4
-15 -8z"/>
<path d="M2576 754 c-4 -11 -14 -15 -31 -12 -14 3 -25 1 -25 -3 0 -5 47 -9
105 -9 88 0 106 -3 115 -17 11 -17 11 -17 6 0 -3 10 -6 21 -6 23 0 2 -9 4 -20
4 -10 0 -31 5 -45 12 -21 9 -31 9 -46 0 -26 -16 -42 -15 -35 3 3 8 1 15 -3 15
-5 0 -12 -7 -15 -16z"/>
<path d="M2698 763 c7 -3 16 -2 19 1 4 3 -2 6 -13 5 -11 0 -14 -3 -6 -6z"/>
<path d="M5861 644 c0 -11 3 -14 6 -6 3 7 2 16 -1 19 -3 4 -6 -2 -5 -13z"/>
</g>
</svg>
