<?xml version="1.0" standalone="no"?>
<!DOCTYPE svg PUBLIC "-//W3C//DTD SVG 20010904//EN"
 "http://www.w3.org/TR/2001/REC-SVG-20010904/DTD/svg10.dtd">
<svg version="1.0" xmlns="http://www.w3.org/2000/svg"
 width="740.000000pt" height="740.000000pt" viewBox="0 0 740.000000 740.000000"
 preserveAspectRatio="xMidYMid meet">

<g transform="translate(0.000000,740.000000) scale(0.100000,-0.100000)"
fill="#000000" stroke="none">
<path d="M436 7035 c-11 -30 -6 -128 10 -194 80 -318 365 -680 809 -1026 108
-84 100 -87 -40 -17 -117 58 -225 131 -305 206 -64 61 -64 61 -21 11 119 -140
299 -256 544 -350 53 -20 97 -41 97 -45 0 -5 -39 2 -87 15 -320 86 -592 245
-784 457 -147 164 -277 346 -365 514 l-44 84 0 -83 c0 -166 55 -388 136 -549
87 -174 224 -333 359 -420 84 -54 281 -154 384 -194 40 -15 69 -30 63 -32 -33
-11 -345 71 -449 118 -36 17 -68 29 -70 27 -6 -6 189 -94 257 -115 131 -42
365 -91 444 -93 17 0 47 -7 66 -14 34 -13 32 -14 -51 -14 -101 -1 -254 13
-389 35 -249 42 -490 142 -612 254 -38 34 -68 59 -68 55 0 -4 16 -37 35 -74
116 -221 369 -392 690 -466 127 -30 72 -33 -68 -4 -138 29 -292 80 -402 134
-49 25 -79 36 -65 26 77 -61 363 -177 480 -196 25 -4 52 -11 60 -16 49 -30
-472 46 -568 82 -48 18 -33 1 30 -34 201 -112 414 -203 613 -262 l120 -36 -80
6 c-44 3 -133 13 -198 21 -65 9 -121 14 -123 11 -12 -12 392 -76 481 -77 28 0
56 -4 64 -9 22 -14 -162 -26 -404 -26 -209 1 -296 10 -390 40 l-20 7 20 -17
c38 -31 241 -124 350 -160 119 -40 343 -95 387 -95 15 0 30 -5 34 -12 10 -16
-341 -3 -426 16 -75 18 -95 19 -60 5 76 -31 223 -50 440 -56 248 -7 245 -12
-23 -38 -256 -24 -463 -17 -568 20 l-41 15 14 -23 c70 -106 335 -184 699 -204
173 -9 116 -20 -121 -24 -146 -1 -179 -4 -130 -9 153 -18 536 -8 625 16 20 5
20 5 0 -11 -32 -25 -193 -72 -307 -89 -185 -28 -446 -14 -569 29 l-39 14 17
-26 c45 -68 219 -144 420 -183 128 -25 369 -44 448 -36 37 4 56 3 50 -3 -9 -9
-196 -26 -360 -34 -33 -2 28 -4 135 -5 179 -2 260 5 420 33 58 11 15 -12 -85
-44 -143 -46 -284 -65 -490 -65 -158 0 -268 10 -342 30 -40 11 -27 -26 26 -77
61 -58 168 -111 286 -141 77 -19 116 -23 270 -23 237 0 387 32 598 127 49 22
91 37 94 34 13 -13 -43 -57 -121 -95 -107 -53 -324 -124 -466 -152 -87 -18
-151 -23 -262 -24 -82 0 -148 -3 -148 -6 0 -10 44 -46 76 -63 149 -74 547 -35
903 89 57 20 105 34 107 32 9 -9 -78 -109 -124 -142 -148 -109 -424 -209 -615
-222 -75 -6 -77 -6 -60 -25 51 -56 322 -72 515 -30 172 38 341 105 426 170 18
14 34 23 37 21 2 -3 -15 -28 -37 -57 -84 -108 -276 -227 -461 -288 -111 -36
-108 -41 33 -50 188 -14 427 66 639 213 35 24 66 42 68 39 3 -3 -66 -77 -153
-164 -167 -167 -275 -249 -361 -273 l-46 -13 39 -14 c21 -8 87 -17 145 -19
208 -10 363 49 510 196 88 88 137 163 185 282 23 58 67 119 84 119 10 0 178
-313 244 -451 118 -251 147 -373 177 -745 31 -377 31 -702 0 -878 -25 -145
-64 -274 -112 -368 l-31 -63 27 25 c112 103 204 316 247 569 32 188 28 604 -8
871 -9 63 2 47 29 -46 14 -43 56 -162 95 -264 70 -185 102 -305 144 -541 22
-128 31 -378 16 -484 l-6 -50 20 44 c60 132 79 446 40 679 -10 62 -15 109 -11
105 14 -14 76 -252 92 -353 41 -250 30 -509 -32 -751 -21 -85 -53 -192 -70
-238 -17 -47 -29 -87 -26 -89 3 -3 37 28 77 69 167 171 252 421 251 744 -1
285 -56 495 -247 935 -41 96 -74 175 -72 177 5 5 223 -378 282 -494 66 -130
117 -262 150 -388 36 -138 45 -384 19 -536 -14 -88 -48 -207 -81 -284 -13 -33
72 40 116 99 99 133 140 263 147 466 4 122 2 161 -17 250 -22 110 -73 256
-122 354 -16 32 -27 60 -25 62 2 3 77 -106 166 -240 89 -135 166 -248 172
-252 21 -13 -22 120 -92 283 -57 133 -183 379 -269 525 -32 53 -123 181 -202
285 -205 267 -260 354 -299 468 -22 65 -19 340 6 443 11 45 23 82 28 82 33 0
71 -51 126 -165 69 -143 116 -211 194 -281 73 -64 148 -109 239 -142 64 -23
88 -26 203 -27 82 0 148 5 178 14 l48 14 -58 23 c-97 40 -192 112 -345 266
-82 81 -148 152 -148 158 0 5 34 -13 76 -41 100 -67 258 -142 369 -174 110
-32 248 -42 328 -25 l59 12 -101 33 c-121 41 -180 70 -288 141 -73 48 -203
173 -203 195 0 5 27 -9 60 -30 263 -170 771 -237 920 -121 l25 20 -60 0 c-178
1 -515 122 -656 234 -53 43 -117 121 -107 131 2 3 42 -9 89 -26 46 -17 143
-46 214 -64 359 -92 659 -89 753 8 l33 34 -108 -5 c-232 -9 -589 77 -807 196
-65 35 -97 64 -85 77 3 3 39 -10 80 -29 95 -44 231 -89 339 -112 128 -28 434
-26 545 5 154 42 283 119 322 194 15 29 14 30 -9 24 -137 -33 -456 -43 -613
-18 -133 20 -347 82 -333 96 2 2 40 -3 83 -11 54 -11 158 -17 315 -19 186 -2
209 -2 110 5 -189 11 -290 21 -290 29 0 3 64 6 143 7 350 3 715 107 777 224 9
16 7 17 -32 3 -132 -45 -444 -55 -627 -18 -87 17 -251 72 -251 84 0 4 42 1 93
-5 100 -14 442 -16 547 -4 49 5 16 8 -130 9 -239 4 -293 15 -120 25 322 18
578 86 668 175 42 43 41 52 -7 35 -73 -25 -220 -37 -381 -30 -142 5 -409 32
-419 42 -2 2 65 4 150 4 172 0 308 12 417 36 86 19 91 31 5 14 -66 -13 -422
-26 -411 -15 3 4 49 15 102 25 218 42 411 106 576 191 122 62 154 84 91 63
-103 -35 -236 -46 -471 -40 -334 10 -413 26 -200 41 95 6 207 23 371 56 113
23 147 39 43 20 -76 -14 -320 -41 -359 -40 -19 0 1 9 55 24 202 56 415 144
615 253 100 55 124 70 94 59 -81 -29 -379 -79 -539 -92 -79 -6 -80 7 -2 19 77
12 234 67 347 121 139 67 182 100 55 41 -116 -53 -252 -97 -387 -125 -122 -25
-190 -27 -83 -2 219 51 412 145 552 270 74 66 161 188 182 257 5 17 -3 13 -34
-17 -187 -178 -535 -289 -955 -305 -178 -6 -179 7 -4 32 233 32 405 79 573
158 53 25 96 47 96 50 0 2 -28 -8 -62 -24 -119 -53 -443 -140 -480 -128 -6 2
18 15 53 27 109 40 300 136 395 199 144 96 281 256 367 427 71 141 122 347
132 530 l6 110 -53 -100 c-113 -211 -249 -395 -413 -560 -124 -125 -243 -210
-402 -286 -89 -44 -308 -122 -397 -143 -59 -14 -8 21 72 49 230 81 456 228
563 368 25 32 15 25 -42 -29 -40 -39 -110 -95 -154 -123 -80 -53 -264 -146
-271 -138 -3 2 21 24 53 47 359 269 634 579 773 873 63 132 82 206 78 310 l-3
82 -33 -57 c-62 -107 -175 -242 -352 -419 -165 -166 -420 -399 -420 -384 0 4
26 35 57 69 97 104 237 305 300 431 32 64 18 49 -37 -40 -59 -96 -175 -247
-249 -325 l-61 -65 44 89 c74 145 116 294 131 456 l7 75 -44 -75 c-65 -111
-92 -153 -187 -285 -93 -131 -361 -468 -367 -463 -2 2 3 22 11 43 15 44 18 75
9 99 -4 10 -17 -7 -40 -52 -18 -37 -63 -106 -98 -153 -77 -102 -292 -337 -356
-388 -39 -32 -34 -24 35 59 94 112 142 176 180 245 38 67 28 56 -33 -35 -50
-75 -251 -299 -413 -460 -52 -52 -103 -115 -128 -159 -50 -84 -196 -395 -218
-461 -54 -165 -182 -351 -305 -443 -82 -61 -188 -168 -237 -239 -48 -72 -108
-203 -133 -295 -13 -46 -26 -83 -29 -83 -4 0 -10 12 -13 27 -4 14 -49 124
-101 244 -119 276 -125 297 -125 428 0 110 14 196 51 313 l22 68 41 0 c63 0
221 28 284 50 56 20 112 63 112 86 0 8 -16 6 -52 -9 -45 -18 -73 -21 -178 -20
-69 0 -136 5 -150 10 -22 9 -20 11 25 17 78 12 163 42 200 71 43 32 44 43 5
37 -31 -4 -148 28 -190 53 -24 15 -24 15 15 8 76 -14 189 -6 263 20 69 24 168
83 194 115 7 9 -5 3 -27 -14 -91 -70 -191 -104 -312 -104 -49 0 -83 4 -83 10
0 6 16 10 35 10 64 0 217 71 241 113 4 6 -1 4 -12 -5 -35 -31 -128 -67 -201
-78 -93 -15 -197 0 -283 38 -149 68 -271 87 -361 57 -60 -20 -113 -16 -179 14
-55 25 -125 27 -182 4 -46 -18 -132 -72 -125 -79 2 -2 29 1 60 7 l55 11 114
-77 c62 -43 172 -106 244 -141 164 -79 189 -104 181 -181 -7 -68 -71 -202
-214 -449 -60 -104 -115 -202 -122 -218 l-12 -29 -23 24 c-13 13 -40 67 -60
119 -74 195 -155 331 -324 543 -114 143 -206 274 -283 402 -37 61 -89 127
-165 205 -265 275 -334 354 -432 496 -7 10 -1 -3 14 -31 34 -62 115 -171 189
-254 103 -115 55 -77 -98 79 -166 170 -277 308 -338 422 l-38 73 -1 -53 c0
-29 7 -68 14 -87 8 -19 13 -35 11 -35 -6 0 -228 280 -321 405 -112 151 -191
269 -243 365 l-41 75 6 -55 c19 -197 53 -321 129 -475 l54 -110 -55 60 c-80
88 -171 205 -234 300 -79 119 -82 124 -64 85 53 -113 207 -335 315 -455 65
-72 50 -62 -106 75 -270 236 -549 539 -622 676 -23 42 -32 52 -37 39z m1078
-1204 c25 -18 85 -51 132 -73 48 -23 82 -44 76 -46 -15 -5 -128 45 -187 83
-59 38 -181 148 -197 179 -6 12 21 -9 59 -45 39 -37 91 -81 117 -98z m4465 83
c-35 -36 -90 -84 -123 -106 -66 -45 -177 -98 -203 -97 -10 0 14 15 53 33 101
47 200 115 268 185 33 33 62 58 65 55 3 -2 -24 -34 -60 -70z m-4719 -389 c52
-17 145 -44 205 -59 61 -14 137 -33 170 -41 l60 -14 -68 5 c-119 8 -458 109
-492 146 -7 8 -4 9 10 3 11 -4 63 -22 115 -40z m4960 26 c-101 -54 -423 -142
-506 -140 l-39 1 45 10 c161 36 300 73 400 107 128 44 152 49 100 22z m-5025
-332 c44 -5 156 -12 249 -16 122 -4 163 -9 145 -16 -51 -19 -460 12 -554 43
-32 11 -11 9 160 -11z m5150 10 c-101 -30 -523 -62 -559 -42 -13 7 34 12 161
17 98 4 219 14 268 21 50 6 106 12 125 13 l35 0 -30 -9z m-4730 -260 c-86 -26
-480 -29 -503 -3 -4 4 52 4 123 1 72 -2 171 -2 220 3 50 4 113 7 140 8 45 0
47 -1 20 -9z m4484 -1 c90 1 162 -1 159 -4 -3 -3 -58 -9 -123 -14 -121 -9
-335 2 -377 20 -16 7 10 8 77 3 55 -4 174 -7 264 -5z m26 -317 c-14 -13 -197
-39 -336 -47 -104 -6 -296 2 -287 12 2 2 98 6 214 9 174 5 251 11 409 34 6 0
6 -2 0 -8z m-4615 -21 c63 -5 171 -10 240 -11 l125 -2 -80 -10 c-92 -12 -367
4 -475 28 l-65 14 70 -5 c39 -2 122 -9 185 -14z m514 -250 c-6 -6 -56 -20
-110 -32 -80 -17 -133 -21 -279 -21 -99 0 -192 4 -207 9 -18 6 43 10 180 11
159 1 230 6 307 21 127 24 121 24 109 12z m3456 -16 c70 -13 148 -18 297 -19
129 0 193 -3 175 -9 -15 -4 -108 -9 -207 -9 -146 0 -200 4 -284 21 -58 12
-109 27 -115 33 -8 9 -5 10 14 6 14 -3 68 -14 120 -23z m22 -288 c49 -9 140
-19 200 -22 71 -5 104 -10 94 -16 -39 -22 -372 24 -533 73 -103 32 -71 38 43
8 58 -15 146 -35 196 -43z m-3332 60 c0 -9 -128 -46 -223 -66 -114 -24 -356
-45 -369 -32 -5 5 36 12 94 15 120 8 258 30 378 62 86 22 120 28 120 21z m280
-190 c0 -10 -133 -88 -195 -114 -138 -59 -450 -133 -547 -131 l-53 2 60 7 c89
12 327 68 428 101 92 30 212 84 262 117 29 20 45 26 45 18z m2781 -135 c113
-35 292 -78 404 -96 76 -12 77 -13 29 -14 -58 -1 -190 24 -364 69 -121 32
-319 121 -354 159 -12 13 17 2 85 -33 57 -30 147 -68 200 -85z m-2611 -2
c-182 -166 -401 -289 -510 -288 -29 0 -23 3 31 18 133 36 261 110 429 249 98
81 132 95 50 21z m2195 -30 c182 -147 284 -205 430 -244 38 -10 43 -14 22 -14
-38 -1 -168 43 -226 76 -113 65 -319 225 -330 257 -5 13 -9 15 104 -75z
m-2169 -323 c-68 -89 -177 -161 -261 -172 -36 -4 -33 -2 24 20 82 31 162 87
214 148 45 54 64 57 23 4z m2074 35 c0 -16 106 -117 151 -143 24 -14 69 -34
99 -44 30 -10 48 -20 42 -22 -21 -7 -112 27 -166 62 -71 46 -168 156 -136 156
5 0 10 -4 10 -9z m-1933 -230 c-28 -42 -94 -99 -142 -124 -40 -20 -105 -37
-105 -28 0 4 17 13 38 19 57 17 122 63 177 124 28 30 52 54 54 52 2 -2 -8 -21
-22 -43z m1926 -92 c32 -21 71 -41 87 -44 17 -4 30 -10 30 -15 0 -15 -93 21
-149 58 -49 32 -120 113 -121 137 0 5 21 -15 47 -44 26 -30 74 -71 106 -92z
m-296 -100 c52 -71 128 -133 211 -171 66 -30 80 -42 34 -29 -99 29 -229 133
-283 226 -28 48 -41 90 -16 51 7 -10 31 -45 54 -77z m-1407 49 c-51 -98 -165
-200 -267 -238 -80 -30 -76 -18 9 22 85 41 177 120 226 196 33 53 55 67 32 20z"/>
<path d="M808 4863 c7 -3 16 -2 19 1 4 3 -2 6 -13 5 -11 0 -14 -3 -6 -6z"/>
<path d="M6505 4540 c-13 -5 -14 -9 -5 -9 8 0 24 4 35 9 13 5 14 9 5 9 -8 0
-24 -4 -35 -9z"/>
</g>
</svg>
