<?xml version="1.0" standalone="no"?>
<!DOCTYPE svg PUBLIC "-//W3C//DTD SVG 20010904//EN"
 "http://www.w3.org/TR/2001/REC-SVG-20010904/DTD/svg10.dtd">
<svg version="1.0" xmlns="http://www.w3.org/2000/svg"
 width="740.000000pt" height="740.000000pt" viewBox="0 0 740.000000 740.000000"
 preserveAspectRatio="xMidYMid meet">

<g transform="translate(0.000000,740.000000) scale(0.100000,-0.100000)"
fill="#000000" stroke="none">
<path d="M0 3700 l0 -3700 3700 0 3700 0 0 3700 0 3700 -3700 0 -3700 0 0
-3700z m3014 2014 c130 -37 360 -126 466 -179 168 -85 363 -210 510 -329 103
-82 331 -313 414 -416 157 -198 349 -511 331 -540 -3 -5 -1 -18 5 -29 8 -16 7
-22 -9 -31 -11 -5 -29 -10 -40 -10 -12 0 -21 -4 -21 -10 0 -5 -11 -10 -24 -10
-37 0 -56 -10 -56 -31 0 -27 -26 -24 -56 6 -14 14 -32 25 -40 25 -8 0 -17 7
-20 15 -4 8 -10 13 -14 10 -5 -3 -16 2 -24 11 -10 9 -16 11 -16 4 0 -7 -7 -10
-15 -6 -9 3 -24 -3 -35 -14 -11 -11 -31 -20 -45 -20 -20 0 -25 -5 -25 -24 0
-23 -45 -64 -57 -52 -4 3 -12 1 -20 -6 -11 -9 -21 -6 -44 11 -16 12 -34 19
-39 16 -10 -6 -14 -4 -205 146 -389 304 -672 573 -856 814 -36 48 -69 80 -80
81 -16 1 -17 -1 -7 -14 10 -12 10 -16 1 -19 -7 -3 -13 -9 -13 -14 0 -6 4 -7
10 -4 5 3 8 0 5 -7 -5 -14 2 -29 48 -97 30 -45 25 -71 -13 -71 -22 0 -32 -57
-21 -117 6 -30 5 -43 -3 -43 -6 -1 6 -10 27 -21 20 -11 37 -21 37 -24 0 -2
-74 32 -164 75 -319 152 -453 195 -762 241 -77 11 -157 23 -179 27 l-40 7 75
51 c238 161 491 250 743 261 70 3 127 8 127 11 0 2 -47 93 -105 201 -58 108
-105 200 -105 203 0 9 219 -39 354 -78z m6 -584 c0 -5 -2 -10 -4 -10 -3 0 -8
5 -11 10 -3 6 -1 10 4 10 6 0 11 -4 11 -10z m-544 -272 c-4 -27 14 -66 43 -92
12 -11 21 -25 21 -33 0 -7 7 -13 15 -13 11 0 14 -9 13 -31 -3 -29 0 -33 47
-49 77 -28 117 -44 150 -62 17 -9 44 -23 60 -32 20 -11 24 -16 12 -16 -10 0
-31 -13 -47 -30 -29 -29 -31 -30 -132 -30 -135 0 -330 -24 -443 -55 -117 -32
-220 -71 -218 -82 1 -5 -10 -10 -23 -11 -29 -2 -30 -6 35 88 115 168 306 370
421 446 44 29 51 29 46 2z m2307 -680 c9 -21 15 -38 12 -38 -6 0 -55 96 -55
107 0 11 23 -27 43 -69z m-613 -100 c0 -6 -6 -5 -15 2 -8 7 -15 14 -15 16 0 2
7 1 15 -2 8 -4 15 -11 15 -16z m55 -38 c12 -19 -12 -10 -31 11 -19 22 -19 22
3 10 12 -6 25 -16 28 -21z m-1899 -188 c-9 -14 31 -55 65 -66 19 -6 39 -22 46
-36 10 -22 59 -71 184 -185 15 -13 29 -22 32 -19 2 3 8 -7 11 -21 4 -17 -1
-42 -14 -72 -18 -41 -24 -67 -34 -135 -1 -10 -5 -21 -9 -24 -11 -11 -8 -56 2
-49 13 7 61 -16 61 -30 0 -6 7 -20 16 -31 8 -10 13 -13 9 -6 -10 20 6 14 51
-20 l43 -33 3 -110 c3 -95 0 -119 -20 -174 -39 -108 -63 -228 -64 -313 l0 -81
-75 144 c-263 508 -351 688 -369 759 -25 99 -25 279 0 369 23 85 46 141 58
141 5 0 7 -4 4 -8z m2737 -165 c159 -159 273 -329 350 -523 39 -99 64 -190 55
-200 -4 -3 -159 72 -345 168 -185 95 -377 193 -426 218 -53 27 -82 46 -72 48
10 2 21 -1 25 -7 3 -6 16 -13 28 -16 12 -2 27 -7 32 -10 6 -3 10 -1 10 4 0 6
-6 11 -14 11 -8 0 -16 7 -20 15 -3 8 -1 15 4 15 10 0 1 102 -10 110 -4 3 -10
16 -13 30 -4 16 -27 40 -59 63 l-53 37 55 0 c111 0 220 43 289 114 42 44 43
43 164 -77z m-1875 -926 c18 -17 32 -40 32 -53 0 -13 7 -60 16 -106 15 -72 18
-80 30 -65 8 10 0 -9 -16 -42 -39 -78 -60 -163 -60 -245 l-1 -65 -87 90 c-48
50 -108 123 -135 162 -61 92 -111 193 -100 203 4 5 24 10 43 13 143 21 182 37
196 79 6 21 35 58 44 58 3 0 20 -13 38 -29z m482 -406 c43 -91 93 -174 103
-168 5 3 7 -3 3 -13 -34 -111 -49 -269 -32 -343 l8 -35 -51 43 c-128 107 -318
344 -290 361 7 5 16 7 20 4 4 -2 10 0 14 6 3 5 20 10 36 10 17 0 39 5 49 10
15 8 21 6 29 -7 8 -14 10 1 11 57 0 107 9 147 31 153 11 3 19 13 19 24 1 10 7
2 14 -17 7 -19 23 -57 36 -85z m848 -579 c23 -88 40 -162 37 -165 -10 -10
-158 40 -239 80 -92 46 -192 112 -251 165 -22 20 -33 32 -25 28 27 -15 58 -15
63 0 4 10 1 13 -9 9 -10 -4 -12 0 -8 10 10 28 55 34 225 33 l165 -1 42 -159z"/>
<path d="M4703 3482 c-1 -22 0 -24 9 -8 6 10 6 22 2 26 -5 5 -10 -3 -11 -18z"/>
</g>
</svg>
