<?xml version="1.0" standalone="no"?>
<!DOCTYPE svg PUBLIC "-//W3C//DTD SVG 20010904//EN"
 "http://www.w3.org/TR/2001/REC-SVG-20010904/DTD/svg10.dtd">
<svg version="1.0" xmlns="http://www.w3.org/2000/svg"
 width="740.000000pt" height="740.000000pt" viewBox="0 0 740.000000 740.000000"
 preserveAspectRatio="xMidYMid meet">

<g transform="translate(0.000000,740.000000) scale(0.100000,-0.100000)"
fill="#000000" stroke="none">
<path d="M5400 6280 c-19 -3 -43 -11 -54 -17 -15 -8 -7 -11 40 -16 95 -10 176
-56 279 -161 133 -135 209 -283 236 -457 17 -109 -3 -219 -49 -273 -17 -19
-16 -19 18 0 72 41 105 123 103 254 -5 332 -333 715 -573 670z"/>
<path d="M5411 5898 c2 -2 18 -14 34 -28 l30 -25 -24 28 c-14 15 -29 27 -34
27 -6 0 -8 -1 -6 -2z"/>
<path d="M4300 5822 c0 -10 14 -31 32 -48 18 -16 26 -21 19 -12 -7 10 -11 24
-8 32 4 10 0 12 -16 8 -19 -5 -20 -3 -10 10 7 8 10 18 6 21 -12 13 -23 7 -23
-11z"/>
<path d="M2832 5418 c-1 -60 1 -108 4 -108 3 0 25 12 50 26 l44 26 -1 81 c-1
67 -3 74 -8 40 -8 -49 -21 -68 -21 -32 0 19 -2 21 -10 9 -8 -13 -11 -12 -24 5
-15 19 -15 18 -17 -15 -2 -27 -4 -23 -9 20 -6 46 -7 37 -8 -52z"/>
<path d="M2429 5185 c-1 -33 -3 -72 -4 -87 l-2 -27 49 27 c28 15 52 32 55 38
2 7 -1 31 -7 54 -11 40 -13 42 -46 38 -18 -2 -36 1 -38 7 -2 5 -5 -17 -7 -50z"/>
<path d="M2062 4933 l-2 -72 48 27 c40 24 47 33 49 63 l2 34 -12 -32 c-14 -37
-28 -54 -20 -25 4 17 1 21 -16 19 -18 -1 -21 -6 -17 -29 2 -16 0 -26 -5 -22
-5 3 -10 -1 -11 -8 -1 -7 -4 16 -8 52 l-7 65 -1 -72z"/>
<path d="M3648 4983 c6 -2 18 -2 25 0 6 3 1 5 -13 5 -14 0 -19 -2 -12 -5z"/>
<path d="M3645 4961 c-10 -17 12 -21 25 -6 10 12 10 15 -3 15 -9 0 -18 -4 -22
-9z"/>
<path d="M3653 4932 c-38 -4 -135 -86 -112 -95 13 -5 3 -8 -17 -6 -7 0 -64
-64 -64 -72 0 -4 -19 -26 -43 -50 -36 -38 -41 -47 -32 -66 13 -30 69 -41 104
-22 14 8 34 31 45 52 17 36 17 39 1 57 -19 21 -17 71 3 78 7 2 16 -5 19 -17 3
-12 11 -21 18 -21 8 0 11 8 8 18 -3 12 4 25 21 36 14 9 26 23 26 30 0 8 10 16
23 20 23 5 54 52 39 58 -4 2 -21 2 -39 0z"/>
<path d="M4956 4894 c-3 -9 -6 -25 -6 -37 1 -32 37 -107 52 -107 10 0 10 2 1
8 -15 10 -33 57 -33 87 0 13 10 31 23 40 l22 17 -24 -7 c-16 -5 -21 -4 -17 4
4 6 3 11 -2 11 -6 0 -13 -7 -16 -16z"/>
<path d="M3350 4656 c0 -2 8 -10 18 -17 15 -13 16 -12 3 4 -13 16 -21 21 -21
13z"/>
<path d="M3153 4615 c-53 -22 -242 -244 -292 -342 -28 -56 -27 -76 8 -127 40
-58 227 -235 257 -242 22 -6 23 -8 17 -89 -9 -124 -2 -143 67 -192 65 -48 69
-50 68 -25 -3 34 25 153 33 145 4 -4 9 -50 10 -101 3 -109 4 -111 109 -138 79
-20 160 -15 218 15 81 41 94 94 68 278 -10 65 -16 156 -14 202 l3 84 57 -47
c118 -96 207 -120 254 -68 33 37 173 320 181 365 5 33 2 38 -28 56 -61 37 -69
32 -155 -98 l-78 -118 -107 99 c-117 110 -262 218 -291 218 -11 0 -51 7 -89
16 -59 13 -78 23 -117 60 -37 36 -56 46 -98 53 -36 5 -62 4 -81 -4z m1037
-265 c0 -5 -4 -10 -10 -10 -5 0 -10 5 -10 10 0 6 5 10 10 10 6 0 10 -4 10 -10z
m-10 -30 c0 -5 -4 -10 -10 -10 -5 0 -10 5 -10 10 0 6 5 10 10 10 6 0 10 -4 10
-10z m-1021 -107 c13 -82 14 -153 4 -152 -5 0 -34 33 -65 72 l-56 72 46 47
c25 27 49 45 53 40 3 -4 11 -39 18 -79z"/>
<path d="M1414 3900 c0 -69 1 -97 3 -62 2 34 2 90 0 125 -2 34 -3 6 -3 -63z"/>
<path d="M2290 3884 c-156 -91 -170 -102 -170 -129 0 -14 5 -25 12 -25 20 0
232 123 261 151 31 31 36 59 10 58 -10 0 -61 -25 -113 -55z"/>
<path d="M3153 3515 c0 -22 2 -30 4 -17 2 12 2 30 0 40 -3 9 -5 -1 -4 -23z"/>
<path d="M1175 3530 c-3 -6 1 -7 9 -4 18 7 21 14 7 14 -6 0 -13 -4 -16 -10z"/>
<path d="M3142 3020 c0 -14 2 -19 5 -12 2 6 2 18 0 25 -3 6 -5 1 -5 -13z"/>
<path d="M3392 2925 c0 -16 2 -22 5 -12 2 9 2 23 0 30 -3 6 -5 -1 -5 -18z"/>
<path d="M3133 2895 c0 -27 2 -38 4 -22 2 15 2 37 0 50 -2 12 -4 0 -4 -28z"/>
<path d="M3382 2860 c0 -14 2 -19 5 -12 2 6 2 18 0 25 -3 6 -5 1 -5 -13z"/>
<path d="M3372 2790 c0 -14 2 -19 5 -12 2 6 2 18 0 25 -3 6 -5 1 -5 -13z"/>
<path d="M3362 2730 c0 -14 2 -19 5 -12 2 6 2 18 0 25 -3 6 -5 1 -5 -13z"/>
<path d="M3346 2553 c-12 -98 -22 -119 -67 -137 -45 -18 -101 -21 -130 -6 -18
10 -19 7 -19 -37 0 -27 7 -58 15 -70 21 -30 74 -39 113 -19 41 21 62 54 106
164 37 91 39 118 14 150 -19 22 -26 13 -32 -45z"/>
<path d="M3708 2383 l-38 -4 0 -49 c0 -41 -4 -52 -26 -69 -51 -40 -140 -49
-196 -19 -16 8 -18 3 -18 -52 0 -57 2 -61 33 -80 47 -29 71 -25 156 24 42 24
102 58 133 75 73 41 98 72 98 123 0 54 -24 63 -142 51z"/>
<path d="M6600 2285 c0 -8 -7 -15 -16 -15 -9 0 -33 -10 -53 -22 -47 -30 -56
-35 -145 -86 l-76 -43 2 -172 c1 -99 4 -149 7 -117 6 59 40 110 72 110 9 0 22
7 29 15 7 8 19 15 26 15 8 0 14 9 14 19 0 37 43 90 78 97 28 5 33 11 38 45 12
73 21 49 23 -58 3 -172 11 -132 11 55 0 95 -2 172 -5 172 -3 0 -5 -7 -5 -15z"/>
</g>
</svg>
