<?xml version="1.0" standalone="no"?>
<!DOCTYPE svg PUBLIC "-//W3C//DTD SVG 20010904//EN"
 "http://www.w3.org/TR/2001/REC-SVG-20010904/DTD/svg10.dtd">
<svg version="1.0" xmlns="http://www.w3.org/2000/svg"
 width="740.000000pt" height="740.000000pt" viewBox="0 0 740.000000 740.000000"
 preserveAspectRatio="xMidYMid meet">

<g transform="translate(0.000000,740.000000) scale(0.100000,-0.100000)"
fill="#000000" stroke="none">
<path d="M3758 6656 c-71 -74 -88 -98 -88 -122 1 -27 6 -24 90 65 70 73 90
101 90 123 0 15 -1 27 -2 27 -2 -1 -42 -43 -90 -93z"/>
<path d="M3074 6716 c-5 -14 17 -42 92 -118 95 -94 99 -97 102 -71 3 24 -10
40 -92 118 -81 76 -97 87 -102 71z"/>
<path d="M2981 6540 c-31 -61 -42 -92 -37 -106 6 -15 16 -2 52 68 30 60 41 93
36 106 -5 15 -16 1 -51 -68z"/>
<path d="M3868 6607 c-7 -35 74 -194 89 -175 8 10 -1 36 -37 106 -39 76 -48
89 -52 69z"/>
<path d="M2460 6425 c0 -14 177 -111 186 -102 14 13 -16 38 -79 67 -40 18 -80
37 -89 42 -13 6 -18 5 -18 -7z"/>
<path d="M4348 6397 c-77 -35 -108 -60 -94 -74 9 -9 186 88 186 102 0 8 -1 15
-2 14 -2 0 -42 -19 -90 -42z"/>
<path d="M3405 6379 c-33 -18 -86 -47 -119 -66 -78 -45 -214 -60 -343 -38 -47
8 -95 15 -107 15 -14 0 -44 -24 -85 -70 -35 -38 -68 -70 -72 -70 -5 0 -9 11
-9 25 0 14 -7 28 -15 31 -8 4 -70 -2 -137 -12 -115 -18 -123 -21 -129 -44 -4
-14 -7 -125 -8 -246 l-1 -222 -92 -36 c-51 -19 -131 -49 -177 -67 l-83 -32 63
-36 c35 -21 88 -50 116 -67 29 -16 53 -34 53 -40 0 -6 -22 -71 -50 -145 -27
-73 -48 -135 -46 -136 2 -2 112 34 244 79 l242 83 0 177 c0 205 -17 180 137
198 274 31 861 35 1303 10 85 -5 163 -10 172 -10 16 0 18 -17 20 -166 l3 -166
242 -84 242 -83 -34 92 c-18 51 -42 117 -54 147 -16 41 -18 56 -8 62 6 4 58
33 114 65 56 32 103 61 103 64 0 3 -76 34 -169 69 l-168 64 -7 235 c-4 130 -9
237 -11 239 -4 4 -139 25 -236 36 l-57 7 -6 -45 c-4 -25 -10 -46 -14 -46 -4 0
-37 32 -73 72 l-66 72 -104 -16 c-66 -11 -108 -13 -113 -7 -6 5 -42 9 -82 9
-40 0 -74 4 -76 8 -3 9 -221 122 -235 122 -4 0 -35 -14 -68 -31z m125 -51 l65
-33 -130 -5 c-121 -5 -155 -3 -130 7 6 2 33 17 60 33 28 16 54 30 60 30 5 0
39 -15 75 -32z m-685 -78 c3 -5 -3 -10 -15 -10 -12 0 -18 5 -15 10 3 6 10 10
15 10 5 0 12 -4 15 -10z m600 -200 c62 -23 48 -103 -20 -116 -25 -4 -35 -11
-35 -25 0 -14 -7 -19 -25 -19 -25 0 -25 1 -25 79 0 87 -5 80 67 90 6 0 23 -3
38 -9z m105 -55 l0 -65 40 0 c33 0 40 -3 40 -20 0 -18 -7 -20 -59 -20 -69 0
-71 3 -71 94 0 68 4 76 32 76 16 0 18 -9 18 -65z m189 59 c46 -10 40 -34 -9
-34 -29 0 -40 -4 -40 -15 0 -11 11 -15 36 -15 28 0 35 -3 32 -17 -2 -13 -12
-18 -33 -17 -49 1 -50 -20 -2 -26 29 -4 43 -10 45 -22 3 -16 -5 -18 -62 -18
l-66 0 0 78 c0 43 3 82 7 85 8 9 51 9 92 1z m-429 -86 c4 -67 3 -78 -12 -81
-23 -6 -28 1 -29 42 l0 36 -16 -32 c-20 -40 -35 -41 -62 -5 l-20 27 -1 -37 c0
-31 -4 -38 -20 -38 -13 0 -20 7 -20 19 0 10 -3 46 -6 80 -6 58 -6 61 14 61 14
0 31 -14 48 -40 15 -22 30 -40 33 -40 4 0 17 21 29 46 16 32 28 44 40 42 14
-3 18 -18 22 -80z m618 60 c3 -14 -3 -18 -27 -18 -30 0 -30 0 -33 -62 -3 -55
-5 -63 -23 -63 -18 0 -20 6 -17 62 3 58 2 62 -20 65 -12 2 -24 11 -26 21 -3
16 4 18 70 15 60 -2 73 -6 76 -20z m111 6 c49 -10 39 -34 -14 -34 -25 0 -45
-4 -45 -9 0 -11 25 -21 51 -21 13 0 19 -7 19 -21 0 -18 -4 -20 -31 -14 -22 5
-34 3 -40 -6 -6 -11 1 -15 34 -19 31 -4 43 -10 45 -24 4 -17 -2 -18 -57 -14
-33 2 -63 7 -67 11 -4 3 -3 40 1 82 l7 75 33 0 c18 0 47 -3 64 -6z m-965 -25
c19 -15 26 -30 26 -54 0 -48 -8 -64 -42 -81 -63 -32 -132 6 -132 73 0 71 89
108 148 62z m1129 -1 c32 -12 47 -35 47 -72 0 -62 -42 -90 -121 -80 l-51 7 7
69 c3 39 9 76 11 83 6 15 58 11 107 -7z m-1303 -8 c23 -14 -3 -33 -47 -34 -35
-1 -38 -4 -41 -32 -4 -43 20 -62 60 -46 17 6 37 8 45 3 22 -12 -31 -51 -68
-51 -36 0 -77 37 -85 76 -9 46 35 94 84 94 21 0 44 -5 52 -10z"/>
<path d="M3388 6015 c-3 -3 -3 -15 -1 -26 7 -27 48 -22 48 6 0 19 -33 33 -47
20z"/>
<path d="M2982 5978 c-7 -7 -12 -21 -12 -33 0 -12 5 -26 12 -33 7 -7 21 -12
33 -12 12 0 26 5 33 12 7 7 12 21 12 33 0 12 -5 26 -12 33 -7 7 -21 12 -33 12
-12 0 -26 -5 -33 -12z"/>
<path d="M4130 5935 c0 -41 2 -45 24 -45 25 0 56 23 56 41 0 27 -22 49 -50 49
-29 0 -30 -2 -30 -45z"/>
<path d="M2139 6246 l-16 -55 25 -6 c13 -3 26 -4 29 -1 2 2 10 29 17 60 l13
56 -26 0 c-23 0 -28 -7 -42 -54z"/>
<path d="M4897 6167 c-48 -22 -49 -22 -29 -40 19 -18 22 -18 71 3 45 20 49 24
38 41 -15 24 -21 24 -80 -4z"/>
<path d="M2802 5499 c-12 -18 -9 -25 27 -64 40 -44 41 -44 56 -23 13 20 12 25
-19 62 -40 49 -48 52 -64 25z"/>
<path d="M3354 5381 c-18 -11 -35 -24 -38 -30 -4 -6 -32 -11 -62 -11 -47 0
-59 -4 -90 -33 -26 -24 -37 -43 -41 -75 -5 -34 -11 -46 -30 -53 -26 -10 -44
-47 -37 -76 4 -14 -3 -25 -20 -37 -30 -19 -34 -56 -11 -96 19 -33 19 -69 -1
-91 -16 -17 -15 -19 10 -29 23 -8 25 -13 16 -29 -15 -30 5 -35 38 -11 42 31
85 24 92 -15 10 -54 21 -9 14 54 -6 52 -4 63 15 87 34 43 43 94 27 147 -12 39
-12 49 1 66 19 28 54 26 99 -4 42 -29 50 -30 84 -10 39 22 69 18 144 -20 39
-19 81 -35 95 -34 44 1 94 24 115 52 19 26 19 27 1 47 -10 11 -13 20 -7 20 7
0 12 9 12 20 0 12 -7 20 -16 20 -20 0 -73 54 -96 98 -11 20 -32 39 -54 48 -34
14 -41 14 -80 -1 -39 -15 -45 -15 -73 -1 -40 21 -69 20 -107 -3z"/>
<path d="M3330 5040 c-8 -5 -12 -11 -10 -13 10 -7 110 5 104 14 -7 12 -75 11
-94 -1z"/>
<path d="M3596 5041 c-3 -5 16 -11 44 -13 30 -2 49 1 47 7 -5 13 -83 19 -91 6z"/>
<path d="M3358 4953 c6 -2 18 -2 25 0 6 3 1 5 -13 5 -14 0 -19 -2 -12 -5z"/>
<path d="M3629 4943 c-13 -17 -13 -17 6 -3 11 8 22 16 24 17 2 2 0 3 -6 3 -6
0 -17 -8 -24 -17z"/>
<path d="M3530 4916 c0 -4 14 -43 32 -87 26 -67 29 -82 17 -90 -11 -7 -11 -9
4 -9 25 0 21 25 -14 110 -31 75 -39 90 -39 76z"/>
<path d="M4910 4885 c19 -19 36 -35 39 -35 3 0 -10 16 -29 35 -19 19 -36 35
-39 35 -3 0 10 -16 29 -35z"/>
<path d="M3640 4869 c0 -25 33 -22 38 4 2 12 -3 17 -17 17 -15 0 -21 -6 -21
-21z"/>
<path d="M3395 4870 c-4 -7 -3 -16 3 -22 14 -14 45 -2 40 15 -6 16 -34 21 -43
7z"/>
<path d="M3470 4682 c0 -16 41 -42 65 -41 20 1 20 1 0 6 -11 3 -30 14 -42 26
-13 11 -23 15 -23 9z"/>
<path d="M5052 4590 c0 -14 2 -19 5 -12 2 6 2 18 0 25 -3 6 -5 1 -5 -13z"/>
<path d="M5051 4484 c0 -11 3 -14 6 -6 3 7 2 16 -1 19 -3 4 -6 -2 -5 -13z"/>
<path d="M3097 4393 c-16 -16 -6 -159 18 -256 49 -198 47 -194 80 -157 22 24
62 26 92 5 22 -15 22 -15 11 17 -20 63 -70 86 -107 49 -20 -20 -20 -19 -41 37
-32 84 -52 189 -48 255 2 31 3 57 2 57 0 0 -4 -3 -7 -7z"/>
<path d="M4543 4363 c37 -2 97 -2 135 0 37 2 6 3 -68 3 -74 0 -105 -1 -67 -3z"/>
<path d="M3670 4340 c0 -3 18 -50 39 -105 l39 -100 -29 -3 c-41 -5 -69 -45
-67 -96 l1 -41 6 44 c4 33 13 49 34 65 27 20 29 20 58 4 16 -9 29 -15 29 -13
0 18 -108 261 -110 245z"/>
<path d="M4975 4274 c-9 -15 -12 -23 -6 -20 11 7 35 46 28 46 -3 0 -12 -12
-22 -26z"/>
<path d="M4180 4236 c0 -2 8 -10 18 -17 15 -13 16 -12 3 4 -13 16 -21 21 -21
13z"/>
<path d="M4890 4178 c-36 -34 -51 -52 -35 -41 29 21 114 103 105 103 -3 -1
-34 -29 -70 -62z"/>
<path d="M4255 4160 c10 -11 20 -20 23 -20 3 0 -3 9 -13 20 -10 11 -20 20 -23
20 -3 0 3 -9 13 -20z"/>
<path d="M2755 4158 c57 -31 98 -87 114 -155 l9 -38 1 33 c1 18 -8 50 -18 71
-23 44 -84 101 -109 101 -14 -1 -14 -2 3 -12z"/>
<path d="M4638 4053 c7 -3 16 -2 19 1 4 3 -2 6 -13 5 -11 0 -14 -3 -6 -6z"/>
<path d="M3935 3870 c7 -91 100 -750 105 -750 10 0 9 227 -1 330 -10 112 -28
195 -62 300 -11 36 -26 90 -34 120 l-13 55 5 -55z"/>
<path d="M2906 3803 c-3 -21 -8 -63 -11 -93 -12 -110 -43 -257 -66 -318 -9
-22 -11 -23 -27 -10 -56 49 -242 50 -242 1 0 -8 5 -11 10 -8 36 22 214 5 243
-24 4 -4 -21 -11 -57 -13 -46 -4 -79 -14 -111 -32 -61 -36 -57 -43 6 -9 80 41
140 38 344 -21 94 -27 172 -51 173 -52 5 -3 -64 -283 -71 -290 -6 -6 -243 38
-361 67 -43 11 -83 18 -90 16 -6 -2 7 -7 29 -11 24 -5 55 -22 78 -43 56 -50
114 -71 218 -79 l90 -7 -63 -20 c-52 -17 -74 -32 -129 -88 -37 -36 -92 -100
-122 -140 -157 -209 -141 -378 45 -471 l55 -28 657 0 658 0 -7 -32 c-4 -18
-37 -143 -72 -278 -66 -252 -69 -258 -190 -476 -29 -53 -33 -68 -27 -103 6
-38 4 -44 -35 -86 -53 -57 -52 -83 4 -109 66 -31 360 -136 381 -136 27 0 80
34 99 64 23 34 30 96 16 138 -10 31 -6 44 60 188 72 157 331 734 399 890 97
221 90 388 -20 514 -61 69 -189 116 -426 156 -123 22 -148 22 -546 17 -297 -4
-418 -2 -421 6 -3 11 -79 11 -207 2 l-65 -5 45 15 c29 9 65 12 105 9 40 -4 55
-2 46 4 -8 6 -46 13 -85 17 -40 3 -78 10 -86 15 -12 7 -9 29 17 132 17 68 34
132 38 143 5 18 -8 24 -153 64 -87 24 -168 51 -179 61 l-22 17 24 74 c25 79
50 219 61 337 7 75 0 100 -10 35z"/>
<path d="M4489 3453 c-12 -16 -12 -17 1 -6 9 7 54 14 100 16 l85 3 -86 2 c-72
2 -89 -1 -100 -15z"/>
<path d="M4180 3430 c-10 -6 6 -7 45 -4 58 5 59 4 30 -9 -40 -20 -80 -64 -100
-111 -22 -53 -11 -58 12 -4 23 51 83 106 125 115 21 4 26 8 16 14 -18 12 -109
11 -128 -1z"/>
<path d="M4455 3400 c-9 -16 -13 -30 -11 -30 3 0 12 14 21 30 9 17 13 30 11
30 -3 0 -12 -13 -21 -30z"/>
<path d="M4405 3310 c-9 -16 -13 -30 -11 -30 3 0 12 14 21 30 9 17 13 30 11
30 -3 0 -12 -13 -21 -30z"/>
<path d="M2444 3092 c20 -23 98 -56 156 -66 19 -3 2 5 -39 18 -41 14 -88 35
-105 47 -30 22 -31 22 -12 1z"/>
<path d="M4042 3080 c0 -19 2 -27 5 -17 2 9 2 25 0 35 -3 9 -5 1 -5 -18z"/>
<path d="M4052 3005 c0 -16 2 -22 5 -12 2 9 2 23 0 30 -3 6 -5 -1 -5 -18z"/>
<path d="M4856 2303 c-27 -41 -46 -100 -29 -90 6 4 14 19 18 34 3 15 16 40 27
55 11 16 18 32 15 34 -3 3 -17 -11 -31 -33z"/>
<path d="M2043 2090 c-13 -5 -23 -7 -23 -4 0 9 -46 -49 -59 -74 -12 -23 -37
-147 -46 -232 -3 -25 -7 -61 -10 -80 -18 -131 -33 -416 -29 -550 2 -47 3 -96
3 -110 1 -25 1 -25 88 -23 49 1 91 2 95 3 8 0 13 16 28 93 8 39 15 55 23 50 7
-4 7 0 -1 10 -8 9 -11 20 -8 25 11 18 52 363 61 512 16 279 4 349 -61 376 -19
8 -35 14 -36 13 -2 0 -13 -4 -25 -9z"/>
<path d="M5742 1825 c-11 -49 -23 -110 -27 -135 -4 -25 -9 -53 -11 -62 -3 -10
-1 -18 5 -18 5 0 13 21 16 48 4 26 16 89 27 140 25 121 17 144 -10 27z"/>
<path d="M1311 1835 c-21 -19 -33 -41 -42 -80 -16 -72 -2 -135 95 -435 42
-129 78 -242 79 -250 7 -42 20 -48 110 -52 48 -1 87 -1 87 2 0 7 -87 474 -98
530 -48 231 -59 255 -122 288 -56 28 -72 28 -109 -3z"/>
<path d="M5404 1819 c51 -45 108 -123 150 -206 14 -29 28 -53 31 -53 7 0 -14
49 -48 114 -32 59 -146 186 -168 186 -7 0 9 -19 35 -41z"/>
<path d="M5702 1570 c0 -19 2 -27 5 -17 2 9 2 25 0 35 -3 9 -5 1 -5 -18z"/>
<path d="M1641 1554 c-16 -20 -21 -41 -21 -83 0 -72 24 -246 45 -336 9 -38 18
-78 20 -88 7 -30 12 -32 85 -29 l71 4 -6 66 c-3 37 -11 101 -17 142 -6 41 -12
82 -13 90 -2 18 -20 86 -42 160 -28 96 -80 127 -122 74z"/>
<path d="M5693 1495 c0 -22 2 -30 4 -17 2 12 2 30 0 40 -3 9 -5 -1 -4 -23z"/>
<path d="M5600 1515 c0 -5 5 -17 10 -25 5 -8 10 -10 10 -5 0 6 -5 17 -10 25
-5 8 -10 11 -10 5z"/>
<path d="M5683 1400 c0 -25 2 -35 4 -22 2 12 2 32 0 45 -2 12 -4 2 -4 -23z"/>
<path d="M5846 1360 c-34 -10 -91 -63 -112 -102 -23 -43 -16 -44 15 -2 35 49
87 94 109 94 9 0 24 5 32 10 13 9 13 10 0 9 -8 0 -28 -5 -44 -9z"/>
<path d="M5667 1293 c-3 -16 -1 -32 4 -37 5 -6 9 4 9 27 0 44 -6 48 -13 10z"/>
<path d="M5671 1064 c0 -11 3 -14 6 -6 3 7 2 16 -1 19 -3 4 -6 -2 -5 -13z"/>
<path d="M5410 871 c0 -49 3 -59 19 -64 16 -4 20 -18 25 -98 4 -52 9 -120 12
-151 6 -61 5 -62 -43 -61 -7 1 -13 -5 -13 -13 0 -8 5 -14 11 -14 5 0 17 -16
25 -35 l14 -35 214 0 214 0 12 29 c6 16 19 32 27 35 8 3 13 12 10 19 -4 12 -7
13 -43 16 -15 1 -16 14 -10 124 10 173 13 187 42 187 23 0 24 3 24 60 l0 60
-270 0 -270 0 0 -59z m175 -166 l27 -36 26 35 c15 19 31 35 36 36 5 0 23 -17
41 -37 l31 -36 23 36 c12 20 26 37 31 37 5 0 19 -15 31 -32 13 -18 28 -36 34
-40 7 -5 6 -8 -1 -8 -6 0 -22 16 -35 35 l-24 35 -32 -38 -31 -37 -34 39 -34
39 -27 -37 c-16 -20 -32 -36 -36 -36 -5 0 -19 16 -32 35 l-24 34 -36 -35 c-26
-26 -39 -32 -44 -23 -5 7 -4 10 3 5 6 -3 23 9 38 29 14 19 30 35 34 35 4 0 20
-16 35 -35z"/>
<path d="M1588 853 c105 -2 279 -2 385 0 105 1 19 2 -193 2 -212 0 -298 -1
-192 -2z"/>
<path d="M4106 852 c-3 -5 10 -14 29 -20 37 -11 48 1 16 18 -24 12 -38 13 -45
2z"/>
<path d="M4098 738 c-16 -5 -28 -14 -28 -19 0 -11 6 -11 49 5 42 15 21 28 -21
14z"/>
<path d="M4168 660 c-31 -25 -20 -30 20 -9 23 12 28 18 18 22 -8 3 -25 -2 -38
-13z"/>
<path d="M4240 595 c-22 -27 -5 -37 19 -11 19 20 21 26 9 26 -9 0 -21 -7 -28
-15z"/>
<path d="M1633 403 c75 -2 199 -2 275 0 75 1 13 3 -138 3 -151 0 -213 -2 -137
-3z"/>
</g>
</svg>
