<?xml version="1.0" standalone="no"?>
<!DOCTYPE svg PUBLIC "-//W3C//DTD SVG 20010904//EN"
 "http://www.w3.org/TR/2001/REC-SVG-20010904/DTD/svg10.dtd">
<svg version="1.0" xmlns="http://www.w3.org/2000/svg"
 width="626.000000pt" height="626.000000pt" viewBox="0 0 626.000000 626.000000"
 preserveAspectRatio="xMidYMid meet">

<g transform="translate(0.000000,626.000000) scale(0.100000,-0.100000)"
fill="#000000" stroke="none">
<path d="M2721 5808 c-2 -28 -52 -79 -121 -123 -134 -86 -175 -153 -175 -285
0 -115 15 -141 152 -276 62 -61 113 -115 113 -120 0 -5 7 -52 15 -104 18 -115
18 -113 4 -105 -6 4 -72 11 -148 16 -76 4 -149 13 -163 18 -25 10 -26 9 -21
-28 3 -21 -3 -73 -12 -115 -33 -147 -6 -253 82 -325 46 -38 103 -57 208 -72
44 -5 103 -21 130 -33 l50 -23 74 -269 c163 -591 180 -674 188 -895 6 -147 -3
-339 -16 -339 -3 0 -12 23 -18 51 -22 89 -97 229 -225 420 -69 102 -142 220
-161 261 -37 77 -67 177 -67 221 0 14 -5 29 -12 33 -18 11 -3 -129 23 -211 12
-39 34 -96 50 -127 16 -32 27 -58 24 -58 -3 0 -22 7 -43 16 -21 9 -92 19 -167
25 -126 9 -158 13 -187 24 -11 4 -13 -3 -10 -30 2 -20 -4 -76 -13 -126 -21
-107 -16 -173 19 -234 l24 -44 -19 -73 c-11 -40 -22 -106 -26 -145 -3 -40 -9
-73 -12 -73 -7 0 -14 15 -86 172 -30 65 -63 147 -75 184 -20 66 -20 67 -1 148
27 111 84 273 135 381 47 100 108 180 276 364 62 68 102 118 89 111 -57 -30
-148 -98 -201 -150 -93 -90 -69 -48 43 77 60 67 83 133 77 217 -3 34 -15 80
-26 102 -20 39 -83 104 -155 159 -48 36 -94 102 -106 152 -6 26 -9 31 -10 14
-2 -37 -34 -81 -110 -148 -94 -85 -126 -149 -125 -253 2 -128 43 -187 202
-293 53 -35 105 -74 116 -85 18 -21 18 -22 -32 -100 -28 -43 -72 -122 -98
-175 -27 -53 -52 -97 -57 -97 -4 0 -6 3 -4 8 14 22 -26 157 -143 478 -141 388
-141 385 -99 471 33 67 62 97 214 218 131 105 276 233 210 185 -16 -11 -97
-66 -180 -121 -155 -104 -217 -156 -262 -222 -14 -20 -28 -36 -30 -34 -4 5 22
261 43 422 10 73 22 127 31 137 9 9 52 31 96 48 77 29 135 65 165 100 7 8 25
39 39 68 38 80 31 156 -27 287 -38 85 -45 110 -45 166 l0 67 -28 -24 c-15 -13
-60 -33 -100 -44 -106 -31 -147 -50 -195 -95 -87 -79 -120 -193 -85 -295 10
-31 45 -102 77 -159 l59 -103 -21 -92 c-19 -82 -40 -230 -58 -411 l-6 -60 -28
70 c-117 300 -144 365 -147 361 -5 -5 57 -213 112 -375 19 -58 35 -109 35
-113 0 -5 -28 11 -62 35 -35 24 -97 63 -138 87 -96 54 -112 69 -172 158 -79
117 -159 160 -276 149 -68 -6 -115 -27 -197 -92 -83 -65 -132 -88 -186 -89
l-46 -1 27 -17 c34 -20 68 -65 110 -146 45 -86 105 -137 192 -163 126 -39 198
-14 343 120 55 50 110 94 123 97 17 5 38 -7 92 -51 120 -98 160 -155 280 -403
61 -124 110 -227 110 -228 0 -2 -25 12 -56 32 -66 42 -173 94 -194 94 -8 0 8
-11 35 -24 122 -57 249 -199 288 -321 28 -91 32 -294 6 -321 -12 -12 -21 -13
-35 -6 -26 14 -107 154 -129 222 -30 92 -67 162 -108 203 -21 21 -41 37 -43
35 -2 -3 10 -29 26 -60 36 -67 62 -138 50 -138 -4 0 -83 56 -174 125 -91 69
-221 162 -288 207 -119 78 -307 178 -338 178 -8 0 8 -11 35 -24 65 -31 245
-150 368 -243 53 -42 97 -76 97 -77 0 -1 -30 -1 -67 0 l-68 3 57 -8 c62 -9 90
-24 223 -116 125 -87 187 -145 238 -223 60 -90 90 -180 118 -345 19 -119 20
-140 8 -148 -8 -6 -49 -8 -92 -6 -75 4 -83 7 -290 109 -116 58 -243 116 -282
128 -38 12 -74 26 -78 30 -5 4 1 54 13 111 32 154 12 238 -72 314 -52 47 -86
61 -200 81 -113 19 -180 47 -215 88 -15 18 -23 22 -18 11 16 -34 9 -96 -20
-188 -22 -70 -27 -100 -23 -151 10 -114 71 -206 166 -248 l45 -20 -59 -32
c-71 -38 -124 -76 -124 -90 0 -5 10 0 23 12 60 57 216 100 335 94 66 -4 74
-16 18 -26 -75 -14 -206 -126 -206 -176 0 -8 8 -1 19 15 29 48 103 110 154
130 35 13 65 16 119 13 93 -6 188 -44 373 -147 77 -43 164 -90 192 -105 56
-28 158 -55 208 -56 27 0 33 -6 54 -55 33 -76 115 -219 162 -282 21 -29 39
-55 39 -57 0 -3 -28 10 -62 30 -128 72 -270 127 -403 155 -78 17 -284 17 -360
0 -47 -11 -60 -11 -63 -1 -10 30 -76 89 -120 108 -26 11 -90 28 -142 37 -110
19 -169 44 -207 88 -16 20 -23 24 -18 12 17 -44 15 -74 -14 -169 -34 -110 -38
-168 -16 -243 42 -142 166 -213 375 -213 67 0 140 -15 140 -29 0 -12 -177 -31
-292 -31 -125 0 -238 13 -375 44 -57 13 -103 21 -103 19 0 -4 35 -20 100 -45
24 -10 23 -11 -25 -25 -85 -26 -152 -87 -183 -168 -6 -16 -20 -66 -32 -110
-25 -95 -58 -156 -99 -181 l-29 -19 61 0 c49 0 78 -8 136 -34 92 -41 166 -50
244 -27 131 38 195 131 222 324 9 62 21 124 28 139 11 25 13 25 88 19 130 -11
302 10 502 61 163 42 194 47 292 46 61 0 132 -3 160 -7 l50 -8 -80 -32 c-114
-45 -183 -86 -316 -186 -129 -97 -203 -137 -347 -187 -53 -18 -80 -31 -59 -28
21 4 45 9 53 12 8 3 14 1 14 -4 0 -14 -63 -39 -152 -62 -96 -24 -156 -58 -192
-110 -64 -92 -69 -159 -26 -311 35 -123 37 -171 10 -225 l-20 -38 28 25 c32
31 72 44 171 58 123 17 205 66 256 155 55 93 51 185 -15 340 -23 54 -42 115
-43 137 l-2 40 75 27 c107 40 162 70 269 146 85 61 244 154 264 155 5 0 -5
-18 -23 -39 -49 -63 -64 -119 -56 -215 19 -227 19 -218 -6 -268 l-24 -46 25
16 c18 12 60 18 155 23 131 6 158 13 226 55 29 18 55 23 155 27 66 3 170 14
230 24 251 41 263 34 300 -176 14 -79 23 -146 20 -149 -3 -3 -80 25 -172 63
-282 115 -262 109 -408 109 -114 -1 -139 -4 -204 -28 -53 -18 -94 -26 -143
-26 -74 0 -202 23 -257 46 -31 13 -32 13 -20 -3 18 -20 127 -73 154 -73 11 0
27 -5 35 -10 18 -12 7 -12 -200 -14 l-145 -1 -50 -36 c-28 -19 -51 -44 -53
-55 -3 -16 -1 -16 14 5 33 46 127 63 239 43 l40 -7 -32 -14 c-42 -17 -98 -72
-126 -124 -19 -37 -22 -53 -18 -142 9 -243 8 -271 -17 -304 -25 -34 -19 -41
11 -14 15 14 45 19 150 24 147 6 193 20 260 79 98 85 118 186 73 368 -15 60
-26 122 -24 138 3 27 7 30 93 51 50 12 106 22 125 22 l34 1 -40 -42 c-23 -24
-52 -59 -65 -78 -19 -28 -9 -22 53 32 103 90 127 101 202 96 34 -3 79 -13 101
-22 l40 -18 -45 -12 c-25 -7 -54 -18 -65 -25 l-20 -13 20 8 c11 4 60 9 108 12
83 4 92 2 153 -28 40 -20 95 -60 147 -110 82 -78 82 -78 63 -99 -12 -14 -31
-21 -53 -21 -50 0 -161 28 -215 55 -47 22 -69 17 -26 -6 22 -12 22 -13 -17
-31 -22 -10 -29 -15 -15 -11 35 10 140 7 151 -4 6 -6 -7 -16 -32 -26 -24 -9
-40 -19 -37 -22 3 -3 17 -1 32 5 15 5 53 10 85 10 48 0 63 -4 84 -24 37 -34
42 -67 29 -183 -17 -157 -47 -213 -113 -213 -56 0 -85 -17 -105 -62 -29 -64
-55 -78 -144 -78 -62 0 -80 -4 -93 -18 -10 -10 -17 -24 -17 -31 0 -21 127 -2
237 36 57 19 108 31 113 28 16 -10 -13 -39 -60 -60 -22 -10 -39 -20 -37 -22 8
-7 143 40 196 69 43 22 66 28 101 26 66 -4 62 -33 -10 -71 l-55 -29 58 5 c37
4 87 19 137 43 62 29 86 35 111 30 49 -9 80 -33 72 -53 -5 -12 10 -5 45 20 65
46 89 47 189 3 77 -33 191 -58 149 -33 -61 38 -98 87 -65 87 6 0 55 -19 108
-41 126 -55 147 -59 271 -51 l105 7 -63 24 c-34 13 -92 27 -128 30 -41 5 -69
13 -74 22 -36 64 -71 97 -113 108 -67 19 -104 45 -127 90 -23 46 -45 138 -55
229 -6 61 -5 64 30 112 43 59 110 119 173 156 l46 27 15 -24 c34 -50 61 -76
113 -104 51 -29 58 -30 188 -31 74 0 142 -4 150 -7 13 -6 15 9 16 102 2 153 4
158 62 166 59 8 200 33 230 41 19 6 25 0 43 -42 16 -36 23 -79 29 -180 7 -118
11 -137 36 -184 59 -109 134 -142 309 -138 66 1 129 -1 140 -5 20 -7 20 -2 20
181 l0 187 -30 53 c-71 129 -201 177 -381 142 -33 -6 -73 -10 -89 -8 -24 2 -7
10 75 37 153 50 289 121 358 187 l57 55 -70 -47 c-144 -96 -356 -164 -620
-199 -151 -20 -165 -19 -165 3 0 34 -52 122 -93 157 -49 42 -132 75 -189 75
-23 0 -78 -5 -123 -12 -83 -12 -141 -6 -129 13 25 41 400 159 504 159 43 0 70
-20 148 -114 93 -110 149 -141 252 -141 92 1 132 19 229 109 38 34 83 69 100
76 l31 12 -26 20 c-14 11 -52 60 -85 109 -109 162 -169 204 -299 204 -108 0
-152 -24 -264 -138 -101 -103 -75 -92 -315 -147 -52 -12 -128 -35 -170 -51
-41 -16 -76 -27 -78 -26 -8 9 75 112 144 178 131 125 422 305 581 360 31 11
131 33 222 50 212 39 280 59 401 121 86 44 101 49 116 37 33 -28 46 -82 53
-224 5 -88 13 -153 22 -176 23 -53 75 -107 132 -137 47 -24 59 -26 167 -24 64
1 129 -2 145 -7 l29 -8 4 101 c10 247 8 276 -24 334 -70 128 -191 171 -387
141 -71 -11 -154 0 -146 20 2 5 31 31 65 60 101 84 94 96 -16 29 -87 -53 -269
-133 -279 -123 -2 2 4 18 14 35 26 43 78 76 183 115 138 51 200 105 231 199
17 52 8 159 -19 220 -25 58 -23 61 57 69 56 6 167 35 160 42 -1 2 -26 -2 -53
-10 -28 -7 -83 -16 -122 -20 -72 -7 -73 -7 -83 20 -5 14 -10 37 -10 51 0 24
-1 24 -25 8 -30 -20 -209 -69 -325 -89 -110 -19 -199 -48 -278 -91 l-63 -34
22 30 c40 53 207 192 334 277 34 23 134 81 223 131 l162 90 82 -15 c155 -27
252 -5 333 75 72 70 80 103 80 307 l0 180 -145 -1 c-127 -1 -151 -4 -197 -24
-58 -25 -117 -83 -140 -139 -10 -22 -19 -86 -23 -163 -6 -104 -12 -136 -31
-175 -23 -46 -31 -52 -166 -123 -184 -98 -275 -156 -400 -257 -57 -46 -103
-80 -103 -76 0 17 114 384 146 471 32 85 105 240 133 282 7 10 41 16 128 20
133 7 172 22 235 87 64 66 73 99 70 257 -2 149 6 198 40 241 l22 28 -28 -18
c-23 -15 -51 -18 -179 -19 -149 -1 -153 -2 -206 -31 -133 -74 -174 -192 -136
-392 25 -129 22 -151 -35 -250 -64 -112 -122 -250 -205 -496 -38 -108 -69
-196 -71 -194 -2 2 3 37 10 78 8 41 17 119 21 174 9 142 33 302 50 336 15 28
15 28 -18 31 l-32 3 -8 180 c-4 99 -13 254 -20 345 -11 129 -11 168 -2 180 20
24 44 75 71 152 15 40 37 88 50 105 14 18 19 30 11 27 -7 -2 -73 25 -145 61
-73 36 -154 70 -180 75 -119 22 -252 -46 -312 -160 -7 -14 -23 -64 -36 -112
-22 -90 -50 -148 -72 -156 -8 -2 -3 21 14 65 44 113 101 293 119 378 l17 80
98 95 c78 76 100 105 114 144 19 58 21 152 4 208 -16 53 -82 125 -176 191 -42
30 -91 69 -109 86 -31 32 -31 32 -38 11 -4 -13 -39 -57 -78 -99 -95 -102 -121
-160 -115 -256 6 -96 31 -137 146 -242 49 -45 97 -99 107 -119 17 -36 17 -39
-10 -138 -14 -56 -62 -191 -105 -301 -107 -273 -130 -355 -137 -489 l-6 -110
-83 165 c-99 194 -142 319 -153 440 -7 80 -1 222 13 294 3 17 -1 10 -9 -15
-49 -147 -45 -354 11 -525 9 -27 46 -113 82 -190 85 -186 135 -313 176 -448
32 -108 34 -119 39 -325 3 -117 3 -211 0 -208 -3 2 -20 51 -39 107 -47 138
-114 264 -236 439 l-101 145 11 45 c5 25 19 82 31 127 26 97 19 162 -26 245
-57 104 -127 137 -313 148 -74 5 -148 13 -163 19 -28 11 -28 10 -22 -22 3 -17
-1 -65 -9 -105 -32 -149 -15 -246 57 -320 48 -51 95 -70 222 -92 162 -27 179
-38 273 -185 157 -242 188 -302 241 -469 50 -156 75 -320 68 -451 -11 -204
-65 -413 -150 -580 l-41 -80 -9 105 c-5 58 -7 206 -5 330 4 216 4 222 -9 140
-8 -47 -16 -212 -19 -370 -3 -186 -9 -293 -17 -308 -6 -13 -46 -53 -89 -89
-42 -35 -100 -94 -128 -131 -50 -67 -150 -251 -150 -278 0 -8 -5 -14 -10 -14
-6 0 -8 10 -6 23 3 12 8 54 11 92 35 390 177 886 374 1308 27 59 48 107 46
107 -9 0 -91 -143 -158 -276 -178 -355 -301 -756 -358 -1161 -6 -46 -15 -81
-19 -78 -5 3 -31 75 -59 161 l-51 155 30 121 c17 67 53 180 79 252 27 72 52
140 55 151 24 70 -105 -202 -140 -295 l-42 -114 -7 44 c-9 66 11 269 35 352
26 88 79 189 210 398 160 255 212 376 245 567 16 89 19 285 6 363 -5 34 -8 10
-13 -100 -8 -209 -45 -363 -125 -525 -35 -70 -302 -482 -314 -484 -4 -1 -3 16
2 37 26 113 41 313 36 462 -9 238 -42 397 -155 761 l-48 156 32 131 c44 172
89 402 105 527 14 109 18 428 6 487 -7 32 -5 39 15 49 13 7 77 16 143 20 136
7 199 30 250 91 60 71 69 108 67 272 -2 134 -1 153 19 192 11 24 26 44 32 44
5 0 8 3 5 6 -4 3 -17 -2 -31 -11 -20 -13 -49 -15 -163 -13 -159 3 -196 -8
-274 -78 -88 -79 -109 -183 -74 -364 8 -45 14 -98 12 -118 -5 -46 -11 -30 -33
82 -19 100 -77 283 -106 336 -11 19 -18 28 -15 20 3 -8 20 -62 40 -120 115
-347 121 -674 20 -1140 -27 -125 -70 -290 -78 -298 -7 -6 -9 -1 -50 146 l-35
123 22 67 c31 97 29 190 -7 264 -24 52 -69 102 -111 126 -12 6 -25 47 -42 133
l-25 124 53 45 c119 100 157 146 175 206 31 108 4 196 -92 304 -80 89 -105
132 -114 192 -4 29 -8 45 -9 36z m24 -167 c9 -18 37 -61 62 -95 63 -84 83
-131 83 -196 0 -73 -27 -128 -97 -204 -31 -33 -66 -76 -77 -95 -18 -31 -21
-33 -30 -16 -6 10 -32 46 -59 79 -152 195 -164 219 -154 308 10 84 41 135 140
232 l92 91 11 -36 c7 -20 19 -50 29 -68z m855 64 c0 -3 -6 -16 -14 -28 -20
-31 -36 -127 -36 -221 0 -122 -45 -202 -139 -251 -15 -7 -66 -20 -113 -29 -47
-8 -100 -21 -119 -29 l-34 -14 0 176 c1 199 7 221 82 293 56 55 116 77 225 85
51 3 102 9 113 14 25 10 35 11 35 4z m-1504 -92 c0 -37 11 -92 31 -153 45
-134 47 -152 28 -215 -21 -73 -69 -125 -165 -181 -42 -24 -85 -53 -95 -64 -25
-28 -32 -25 -40 18 -4 20 -27 86 -52 147 -52 126 -58 192 -25 267 33 76 76
115 187 168 57 27 106 54 110 59 14 23 20 9 21 -46z m2039 28 c3 -10 52 -63
108 -117 124 -119 142 -152 142 -254 -1 -91 -19 -130 -109 -235 -33 -39 -66
-80 -73 -91 -11 -17 -12 -18 -12 -1 -2 35 -40 93 -114 174 -88 95 -106 126
-114 193 -8 65 12 119 81 219 31 45 59 93 62 106 7 30 20 32 29 6z m-1704
-835 c19 -7 79 -21 134 -30 161 -28 222 -64 273 -161 29 -55 32 -114 17 -276
l-8 -87 -42 29 c-26 18 -85 40 -153 58 -120 31 -169 56 -207 105 -44 58 -54
104 -52 245 1 72 3 131 3 131 1 0 17 -6 35 -14z m2174 -66 c57 -22 122 -43
145 -46 22 -4 40 -9 40 -11 0 -3 -11 -18 -25 -34 -13 -17 -43 -66 -66 -110
-49 -93 -102 -140 -179 -159 -57 -14 -91 -9 -203 26 -49 15 -102 24 -142 24
l-64 0 19 33 c10 17 31 65 45 104 49 133 150 213 267 213 43 0 84 -10 163 -40z
m-3372 -12 c22 -11 65 -47 96 -80 31 -33 73 -73 94 -88 l37 -28 -42 -21 c-24
-11 -74 -44 -113 -72 -132 -97 -215 -119 -316 -84 -62 22 -101 56 -170 146
-33 44 -67 83 -75 86 -26 10 -14 23 20 23 44 0 89 20 178 77 117 76 201 87
291 41z m997 -217 c0 -28 44 -88 125 -171 81 -83 102 -119 111 -182 8 -61 -8
-111 -65 -201 -27 -43 -55 -92 -62 -110 -7 -18 -13 -33 -14 -34 0 -1 -60 55
-131 125 -141 137 -154 159 -154 259 0 76 25 132 95 217 35 42 67 86 70 96 8
25 25 26 25 1z m3224 -113 c-12 -22 -20 -75 -26 -167 -9 -149 -24 -195 -77
-249 -47 -46 -81 -61 -179 -78 -47 -9 -101 -22 -120 -30 -19 -8 -35 -14 -36
-14 0 0 -1 78 0 173 1 165 2 174 27 223 51 101 126 142 281 156 61 5 112 11
115 14 2 2 10 4 18 4 11 0 10 -7 -3 -32z m-1164 -35 c65 -27 104 -36 165 -40
75 -5 84 -3 138 25 l57 31 0 -330 c0 -257 -3 -329 -12 -329 -7 0 -42 10 -78
21 -139 45 -252 25 -338 -62 -64 -63 -83 -116 -92 -250 -8 -131 -23 -180 -33
-108 -47 337 -29 539 63 722 21 42 35 77 30 77 -17 0 -91 -97 -125 -165 -19
-38 -40 -94 -46 -122 -7 -29 -16 -53 -20 -53 -5 0 -16 26 -25 58 -22 73 -21
223 0 317 23 97 65 223 78 231 49 31 126 23 238 -23z m-1070 -28 c30 -8 93
-21 140 -30 103 -19 163 -53 207 -118 50 -74 59 -136 39 -257 -9 -56 -14 -110
-11 -121 8 -23 -8 -25 -26 -3 -22 26 -84 53 -174 74 -139 32 -194 70 -235 162
-17 39 -20 65 -19 171 1 68 -2 130 -6 137 -6 10 -3 12 11 6 10 -4 44 -14 74
-21z m2726 -317 c-4 -13 -10 -83 -15 -156 -11 -159 -35 -223 -105 -274 -75
-55 -100 -61 -246 -62 l-136 -1 23 41 c13 24 27 73 33 120 20 141 31 182 60
223 55 76 134 109 264 112 28 1 62 5 76 9 44 14 53 12 46 -12z m-1406 -313
c47 -8 113 -15 148 -15 34 0 62 -2 62 -4 0 -3 -9 -20 -19 -38 -11 -18 -27 -63
-37 -100 -23 -95 -68 -165 -128 -203 l-50 -30 -170 0 c-126 0 -177 -4 -195
-14 -22 -12 -23 -12 -16 5 4 11 14 51 22 89 32 164 62 223 137 275 75 51 119
57 246 35z m-3628 -88 c29 -8 86 -25 126 -37 50 -14 85 -32 111 -56 66 -59 75
-89 81 -259 3 -82 4 -151 4 -153 -1 -2 -15 3 -31 11 -16 9 -77 25 -137 36
-144 27 -205 56 -250 118 -46 64 -60 116 -52 202 3 39 9 102 12 140 l6 70 38
-28 c21 -15 63 -35 92 -44z m1439 -262 c24 -8 87 -22 139 -30 120 -21 165 -41
216 -97 55 -59 78 -130 71 -211 -4 -34 -9 -97 -13 -140 l-7 -78 -21 19 c-34
32 -79 51 -171 72 -135 31 -194 70 -238 155 -18 35 -21 59 -21 183 -1 78 -1
142 0 142 0 0 20 -7 45 -15z m2259 -158 c-35 -165 -85 -305 -170 -475 -91
-181 -207 -361 -306 -476 -83 -96 -99 -105 -79 -44 8 24 27 93 41 153 23 99
27 135 31 360 3 172 0 293 -10 390 -12 117 -12 142 -1 155 21 21 127 24 235 6
110 -19 181 -11 239 28 19 13 37 19 38 15 2 -5 -6 -55 -18 -112z m826 -174
c32 -111 15 -204 -49 -271 -18 -19 -79 -58 -137 -87 -59 -30 -122 -69 -142
-90 l-35 -37 -7 38 c-4 20 -21 70 -37 111 -51 128 -35 244 45 326 32 34 65 52
151 87 61 24 126 53 145 65 l35 22 7 -53 c4 -29 15 -79 24 -111z m-2547 -25
c63 -117 96 -219 110 -333 13 -104 15 -245 4 -245 -5 0 -18 24 -31 53 -12 29
-57 97 -98 152 -117 153 -116 148 -68 315 13 46 24 99 24 117 0 18 2 33 4 33
3 0 27 -42 55 -92z m2141 53 c0 -5 -7 -14 -16 -22 -35 -29 -57 -93 -62 -176
l-4 -82 56 -118 c58 -122 67 -161 42 -186 -19 -19 -101 -33 -300 -53 -91 -9
-194 -26 -240 -39 -44 -13 -82 -22 -84 -21 -1 2 14 32 34 67 109 189 135 239
179 342 26 61 54 120 62 129 31 35 147 102 231 134 95 36 102 38 102 25z
m-2664 -142 c14 -23 97 -51 204 -69 135 -22 166 -39 205 -111 17 -30 56 -94
89 -142 75 -112 117 -220 123 -312 3 -38 1 -80 -4 -92 -8 -21 -11 -20 -103 33
-65 37 -140 69 -235 99 -150 48 -185 66 -185 94 0 26 76 126 148 194 38 36 54
57 44 57 -32 0 -87 -41 -163 -122 -87 -92 -94 -92 -149 -14 -28 42 -30 51 -30
133 0 82 13 205 26 246 6 19 20 22 30 6z m-1340 -238 c186 -48 234 -75 277
-154 19 -36 22 -62 27 -195 4 -133 3 -151 -10 -146 -17 8 -120 34 -232 59
-160 35 -238 141 -224 304 4 42 9 106 13 142 l5 66 47 -32 c27 -17 70 -37 97
-44z m622 -121 c172 -22 358 -94 525 -204 48 -31 89 -61 92 -67 4 -6 -76 -9
-232 -7 -264 2 -275 1 -498 -71 -176 -57 -181 -58 -189 -25 -4 14 3 75 15 137
18 93 19 119 10 165 -6 31 -9 57 -7 60 7 6 104 19 156 21 25 0 82 -4 128 -9z
m3969 -116 c73 -20 132 -69 167 -137 27 -52 29 -68 36 -205 4 -82 10 -154 14
-161 9 -13 -4 -14 -36 -2 -14 5 -67 14 -119 20 -108 14 -165 37 -210 88 -46
53 -58 91 -70 211 -7 73 -17 123 -33 157 l-23 50 111 -3 c61 -2 134 -10 163
-18z m-3281 -361 c0 -38 4 -115 8 -173 8 -95 7 -110 -11 -151 -47 -106 -132
-162 -271 -179 -45 -6 -94 -15 -109 -21 -14 -5 -27 -8 -29 -6 -2 1 3 25 11 52
11 34 14 87 13 174 -3 140 5 170 61 233 37 43 96 72 176 88 33 7 76 20 95 30
19 10 40 18 45 19 6 1 10 -28 11 -66z m219 42 c145 -27 244 -83 317 -180 37
-49 38 -51 38 -142 l0 -92 -32 7 c-59 13 -171 6 -268 -16 -97 -23 -250 -45
-257 -38 -3 2 6 24 19 48 19 35 23 58 23 128 -1 47 -6 101 -13 120 -18 54 -42
172 -36 182 6 10 109 1 209 -17z m-1657 -52 c50 -3 92 -8 92 -10 0 -2 -6 -14
-14 -26 -8 -12 -29 -71 -47 -132 -48 -167 -75 -208 -167 -254 -71 -36 -125
-37 -259 -5 l-120 28 33 43 c18 23 42 68 53 100 12 32 29 78 38 102 18 51 73
115 117 138 52 27 79 33 131 28 28 -3 92 -8 143 -12z m3849 -34 c51 -19 101
-60 163 -134 34 -40 77 -84 96 -97 18 -13 34 -26 34 -29 0 -4 -15 -12 -32 -20
-18 -7 -67 -35 -108 -63 -90 -60 -146 -77 -217 -66 -70 11 -85 21 -180 112
-47 45 -104 89 -133 102 l-50 23 37 26 c21 14 65 48 97 76 33 28 78 57 100 65
49 17 154 20 193 5z m-3392 -376 c3 -27 18 -90 32 -142 35 -131 30 -210 -16
-278 -55 -80 -86 -99 -246 -150 -33 -11 -67 -23 -76 -27 -15 -6 -16 0 -12 57
4 42 0 91 -11 141 -46 206 -1 298 184 376 54 23 104 48 111 56 19 23 26 16 34
-33z m2455 -49 c17 -35 24 -70 28 -153 l5 -108 -72 -38 c-39 -21 -91 -55 -115
-76 -24 -22 -47 -39 -51 -39 -9 0 2 145 17 220 5 30 21 75 34 100 22 44 108
140 124 140 5 0 18 -21 30 -46z m321 -11 c60 -27 115 -77 141 -127 17 -33 23
-68 29 -181 4 -77 10 -153 14 -169 7 -27 6 -29 -16 -22 -13 4 -70 14 -125 21
-115 16 -145 26 -191 61 -61 46 -83 99 -98 238 -9 84 -21 138 -34 165 -12 22
-21 42 -21 43 0 2 57 1 127 -3 99 -4 138 -10 174 -26z m749 -226 c71 -3 94 -8
139 -32 65 -36 113 -90 131 -147 7 -24 16 -99 21 -168 4 -69 11 -136 15 -149
6 -22 5 -23 -17 -17 -13 4 -74 13 -136 20 -202 24 -259 82 -286 295 -10 78
-22 126 -39 159 l-25 48 56 -3 c31 -1 94 -4 141 -6z m-2813 -64 c-1 -32 3
-112 7 -178 10 -138 3 -165 -60 -235 -53 -58 -118 -89 -217 -101 -45 -5 -95
-14 -111 -19 -16 -6 -31 -9 -33 -7 -2 2 4 20 12 41 12 27 15 71 14 176 -1 137
-1 140 28 192 40 71 98 110 210 137 48 12 99 29 113 36 14 8 28 14 31 15 4 0
6 -26 6 -57z"/>
<path d="M1218 1703 c7 -3 16 -2 19 1 4 3 -2 6 -13 5 -11 0 -14 -3 -6 -6z"/>
</g>
</svg>
